<?xml version="1.0" standalone="no"?><!-- Generator: Gravit.io --><svg xmlns="http://www.w3.org/2000/svg" xmlns:xlink="http://www.w3.org/1999/xlink" style="isolation:isolate" viewBox="477 499 200 200" width="200" height="200"><defs><clipPath id="_clipPath_Nyu1AZYR0WbbWAwPyE2d12tTpEnx3lSD"><rect x="477" y="499" width="200" height="200"/></clipPath></defs><g clip-path="url(#_clipPath_Nyu1AZYR0WbbWAwPyE2d12tTpEnx3lSD)"><g><path d=" M 484.832 571.129 L 494.404 571.129 L 494.404 571.129 L 494.404 598.606 L 494.404 598.606 L 484.832 598.606 C 480.507 598.606 477 595.838 477 592.424 L 477 577.311 C 477 573.897 480.507 571.129 484.832 571.129 Z " fill="rgb(207,71,55)"/><path d=" M 568.371 540.216 L 550.967 540.216 C 541.355 540.216 533.563 546.368 533.563 553.955 L 533.563 615.78 L 585.775 615.78 L 585.775 553.955 C 585.775 546.368 577.982 540.216 568.371 540.216 Z " fill="rgb(62,140,199)"/><path d=" M 581.424 505.869 L 547.164 509.304 C 546.799 510.427 546.616 511.581 546.616 512.738 L 546.616 526.477 C 546.616 534.065 554.408 540.216 564.02 540.216 C 573.631 540.216 581.424 534.065 581.424 526.477 L 581.424 512.739 C 581.602 510.451 581.602 508.157 581.424 505.869 Z " fill="rgb(254,201,163)"/><g><path d=" M 546.616 509.304 L 546.616 523.043 L 564.02 509.304 L 577.073 509.304 C 584.282 509.304 590.125 504.691 590.125 499 L 559.669 499 C 552.459 499 546.616 503.613 546.616 509.304 L 546.616 509.304 Z " fill="rgb(117,70,46)"/><path d=" M 585.775 615.779 L 533.563 615.779 L 533.563 650.126 L 494.404 663.865 L 503.106 677.604 L 544.606 663.955 C 551.093 661.822 555.318 656.817 555.318 651.27 L 555.318 636.02 C 555.318 632.431 559.003 629.519 563.554 629.519 C 566.531 629.519 569.276 630.786 570.733 632.833 L 607.529 684.474 L 624.933 677.604 L 585.775 615.779 Z " fill="rgb(117,70,46)"/></g><g><path d=" M 491.998 694.413 L 477 670.735 L 494.404 663.865 L 509.863 688.272 C 511.086 690.206 511.086 692.479 509.863 694.413 L 509.863 694.413 C 508.388 696.742 505.373 698.212 502.079 698.212 L 499.781 698.212 C 496.484 698.212 493.469 696.742 491.998 694.413 Z " fill="rgb(62,140,199)"/><path d=" M 642.337 687.908 L 616.231 698.212 L 607.529 684.473 L 633.635 674.169 C 638.443 672.273 644.286 673.809 646.688 677.604 L 646.688 677.604 L 646.688 677.604 C 649.09 681.399 647.141 686.012 642.337 687.908 L 642.337 687.908 Z " fill="rgb(62,140,199)"/></g><path d=" M 645.435 561.796 C 641.867 558.042 635.115 557.28 630.359 560.096 C 629.95 560.337 629.568 560.601 629.206 560.886 L 607.53 577.998 L 585.775 557.389 L 585.775 584.867 L 587.677 587.117 C 594.699 595.425 608.923 597.671 619.452 592.128 C 620.709 591.465 621.88 590.709 622.946 589.865 L 644.435 572.901 C 648.22 569.909 648.646 565.18 645.435 561.796 Z " fill="rgb(254,201,163)"/><g><path d=" M 548.578 536.782 L 516.159 536.782 L 516.159 543.651 L 548.578 543.651 C 554.87 543.654 559.965 547.683 559.961 552.65 C 559.961 554.006 559.569 555.346 558.821 556.566 L 531.475 601.011 L 520.51 602.041 L 520.51 608.91 L 532.91 607.499 C 535.768 607.173 538.231 605.75 539.493 603.7 L 566.63 559.571 C 571.477 551.692 567.314 542.201 557.332 538.375 C 554.604 537.328 551.611 536.785 548.578 536.782 Z " fill="rgb(117,70,46)"/><path d=" M 494.404 602.041 C 494.404 607.732 500.248 612.345 507.457 612.345 L 520.509 612.345 C 527.719 612.345 533.562 607.732 533.562 602.041 L 533.562 598.606 L 494.404 598.606 C 494.404 598.606 494.404 602.041 494.404 602.041 Z " fill="rgb(117,70,46)"/></g><path d=" M 532.823 547.086 C 530.979 542.968 526.045 540.213 520.51 540.216 L 507.457 540.216 C 500.248 540.216 494.404 544.829 494.404 550.52 L 494.404 598.606 L 533.563 598.606 L 533.563 550.52 L 532.823 547.086 Z " fill="rgb(222,76,60)"/><rect x="646.699" y="547.81" width="8.617" height="153.126" transform="matrix(-0.984,0.181,-0.284,-0.965,1468.725,1109.069)" fill="rgb(117,70,46)"/><path d=" M 513.984 509.304 C 503.171 509.304 494.404 516.225 494.404 524.76 C 494.404 533.295 503.171 540.216 513.984 540.216 C 524.796 540.216 533.563 533.295 533.563 524.76 C 533.563 516.225 524.796 509.304 513.984 509.304 Z  M 513.984 529.912 C 510.381 529.912 507.457 527.604 507.457 524.76 C 507.457 521.916 510.381 519.608 513.984 519.608 C 517.586 519.608 520.51 521.916 520.51 524.76 C 520.51 527.604 517.586 529.912 513.984 529.912 Z " fill="rgb(62,140,199)"/><path d=" M 563.15 555.923 L 537.914 568.068 L 567.501 584.867 C 572.496 587.505 573.836 592.836 570.494 596.779 C 570.39 596.903 570.281 597.023 570.168 597.143 L 570.168 597.143 C 566.704 600.78 560.252 601.653 555.452 599.135 L 519.031 578.75 C 514.514 576.366 511.804 572.358 511.808 568.068 L 511.808 568.068 C 511.808 563.778 514.523 559.77 519.048 557.39 L 551.119 541.655 C 555.918 539.138 562.371 540.01 565.834 543.647 L 565.834 543.647 C 569.424 547.449 568.432 552.828 563.615 555.665 C 563.463 555.755 563.306 555.841 563.15 555.923 Z " fill="rgb(254,201,163)"/></g></g></svg>