<?xml version="1.0" standalone="no"?><!-- Generator: Gravit.io --><svg xmlns="http://www.w3.org/2000/svg" xmlns:xlink="http://www.w3.org/1999/xlink" style="isolation:isolate" viewBox="403 191 200 200" width="200" height="200"><defs><clipPath id="_clipPath_3MJr2J2cToc7AgMwusMshZIVf4EklHgY"><rect x="403" y="191" width="200" height="200"/></clipPath></defs><g clip-path="url(#_clipPath_3MJr2J2cToc7AgMwusMshZIVf4EklHgY)"><g><path d=" M 416.367 341.018 C 420.696 348.487 426.022 355.442 432.289 361.711 C 451.178 380.598 476.289 391 503 391 C 529.712 391 554.823 380.598 573.711 361.711 C 579.979 355.442 585.304 348.487 589.633 341.018 C 598.351 325.978 603 308.848 603 291 C 603 273.152 598.351 256.022 589.633 240.982 C 585.304 233.513 579.978 226.556 573.711 220.289 C 554.823 201.402 529.712 191 503 191 C 476.289 191 451.177 201.402 432.289 220.289 C 426.021 226.556 420.694 233.513 416.367 240.982 C 407.649 256.022 403 273.153 403 291 C 403 308.847 407.649 325.978 416.367 341.018 Z  M 477.48 291 C 477.48 286.355 478.732 282.002 480.91 278.245 C 485.329 270.622 493.572 265.478 503 265.478 C 512.428 265.478 520.671 270.622 525.092 278.245 C 527.268 282 528.522 286.355 528.522 291 C 528.522 295.645 527.268 299.998 525.092 303.753 C 520.673 311.378 512.428 316.52 503 316.52 C 493.572 316.52 485.329 311.378 480.908 303.753 C 478.732 299.998 477.48 295.645 477.48 291 L 477.48 291 Z " fill="rgb(255,131,152)"/><path d=" M 503 353.759 L 503 391 C 529.712 391 554.823 380.598 573.711 361.711 C 579.979 355.442 585.304 348.487 589.633 341.018 L 557.359 322.384 C 546.507 341.14 526.228 353.759 503 353.759 Z " fill="rgb(84,227,96)"/><path d=" M 565.761 291 C 565.761 302.433 562.702 313.153 557.359 322.384 L 589.633 341.018 C 598.351 325.978 603 308.848 603 291 C 603 273.152 598.351 256.022 589.633 240.982 L 557.359 259.614 C 562.702 268.847 565.761 279.567 565.761 291 Z " fill="rgb(0,138,223)"/><path d=" M 448.641 322.384 L 416.367 341.018 C 420.696 348.487 426.022 355.442 432.289 361.711 C 451.178 380.598 476.289 391 503 391 L 503 353.759 C 479.772 353.759 459.493 341.14 448.641 322.384 Z " fill="rgb(255,212,0)"/><path d=" M 557.359 259.614 L 589.633 240.982 C 585.304 233.513 579.978 226.556 573.711 220.289 C 554.823 201.402 529.712 191 503 191 L 503 228.239 C 526.228 228.239 546.507 240.86 557.359 259.614 L 557.359 259.614 Z " fill="rgb(0,101,163)"/><path d=" M 416.367 341.018 L 448.641 322.384 C 443.298 313.153 440.241 302.433 440.241 291 C 440.241 279.567 443.298 268.847 448.641 259.616 L 416.367 240.982 C 407.649 256.022 403 273.153 403 291 C 403 308.847 407.649 325.978 416.367 341.018 Z " fill="rgb(255,145,0)"/><path d=" M 503 228.239 L 503 191 C 476.289 191 451.177 201.402 432.289 220.289 C 426.021 226.556 420.694 233.513 416.367 240.982 L 448.641 259.616 C 459.493 240.86 479.772 228.239 503 228.239 Z " fill="rgb(255,73,73)"/><path d=" M 528.522 291 C 528.522 295.645 527.268 299.998 525.092 303.753 L 557.359 322.384 C 562.702 313.153 565.761 302.433 565.761 291 C 565.761 279.565 562.702 268.847 557.359 259.614 L 525.092 278.245 C 527.268 282 528.522 286.355 528.522 291 L 528.522 291 Z " fill="rgb(0,101,163)"/><path d=" M 525.092 278.245 L 557.359 259.616 C 546.507 240.86 526.228 228.239 503 228.239 L 503 265.478 C 512.428 265.478 520.671 270.622 525.092 278.245 Z " fill="rgb(0,81,131)"/><path d=" M 503 316.52 L 503 353.759 C 526.228 353.759 546.507 341.14 557.359 322.384 L 525.092 303.755 C 520.673 311.378 512.428 316.52 503 316.52 L 503 316.52 Z " fill="rgb(0,171,94)"/><path d=" M 503 353.759 L 503 316.52 C 493.572 316.52 485.329 311.378 480.908 303.753 L 448.641 322.384 C 459.493 341.14 479.772 353.759 503 353.759 L 503 353.759 Z " fill="rgb(255,159,4)"/><path d=" M 477.48 291 C 477.48 286.355 478.732 282.002 480.91 278.245 L 448.641 259.616 C 443.298 268.847 440.241 279.567 440.241 291 C 440.241 302.433 443.298 313.153 448.641 322.384 L 480.908 303.753 C 478.732 299.998 477.48 295.645 477.48 291 Z " fill="rgb(255,75,0)"/><path d=" M 503 265.478 L 503 228.239 C 479.772 228.239 459.493 240.86 448.641 259.616 L 480.91 278.245 C 485.329 270.622 493.572 265.478 503 265.478 Z " fill="rgb(232,0,72)"/></g></g></svg>