<?xml version="1.0" standalone="no"?><!-- Generator: Gravit.io --><svg xmlns="http://www.w3.org/2000/svg" xmlns:xlink="http://www.w3.org/1999/xlink" style="isolation:isolate" viewBox="1278 566 200 200" width="200" height="200"><defs><clipPath id="_clipPath_QR0Rr08YWJC4E0L3uYGmrS9Gcj4dDFP3"><rect x="1278" y="566" width="200" height="200"/></clipPath></defs><g clip-path="url(#_clipPath_QR0Rr08YWJC4E0L3uYGmrS9Gcj4dDFP3)"><g><g><circle vector-effect="non-scaling-stroke" cx="1378.000000000001" cy="666" r="100" fill="rgb(251,217,113)"/><path d=" M 1316.095 658.786 C 1314.876 658.786 1313.657 658.319 1312.729 657.39 C 1310.867 655.529 1310.867 652.519 1312.729 650.657 L 1353.133 610.252 C 1354.995 608.39 1358.005 608.39 1359.867 610.252 C 1361.729 612.114 1361.729 615.124 1359.867 616.986 L 1319.462 657.39 C 1318.533 658.324 1317.314 658.786 1316.095 658.786 Z " fill="rgb(242,156,31)"/><path d=" M 1356.5 658.786 C 1355.281 658.786 1354.062 658.319 1353.133 657.39 L 1312.729 616.986 C 1310.867 615.124 1310.867 612.114 1312.729 610.252 C 1314.59 608.39 1317.6 608.39 1319.462 610.252 L 1359.867 650.657 C 1361.729 652.519 1361.729 655.529 1359.867 657.39 C 1358.938 658.324 1357.719 658.786 1356.5 658.786 Z " fill="rgb(242,156,31)"/><path d=" M 1399.5 658.786 C 1398.281 658.786 1397.062 658.319 1396.133 657.39 C 1394.271 655.529 1394.271 652.519 1396.133 650.657 L 1436.538 610.252 C 1438.4 608.39 1441.41 608.39 1443.271 610.252 C 1445.133 612.114 1445.133 615.124 1443.271 616.986 L 1402.867 657.39 C 1401.933 658.324 1400.719 658.786 1399.5 658.786 Z " fill="rgb(242,156,31)"/><path d=" M 1439.905 658.786 C 1438.686 658.786 1437.467 658.319 1436.538 657.39 L 1396.133 616.986 C 1394.271 615.124 1394.271 612.114 1396.133 610.252 C 1397.995 608.39 1401.005 608.39 1402.867 610.252 L 1443.271 650.657 C 1445.133 652.519 1445.133 655.529 1443.271 657.39 C 1442.343 658.324 1441.124 658.786 1439.905 658.786 Z " fill="rgb(242,156,31)"/><g><path d=" M 1378 689.81 L 1378 726.957 C 1378 737.433 1386.571 746.005 1397.048 746.005 L 1401.81 746.005 C 1412.286 746.005 1420.857 737.433 1420.857 726.957 L 1420.857 689.81 C 1412.724 689.91 1386.629 689.81 1378 689.81 Z " fill="rgb(251,123,118)"/></g><path d=" M 1399.586 721.29 C 1396.952 721.29 1394.824 719.162 1394.824 716.529 L 1394.824 715.743 C 1394.829 703.543 1394.486 696.005 1393.8 693.29 C 1392.871 692.429 1392.286 691.186 1392.286 689.81 C 1392.286 687.176 1394.414 685.048 1397.048 685.048 C 1403.195 685.048 1403.657 693.005 1404.029 699.395 C 1404.352 704.981 1404.348 711.462 1404.348 715.752 L 1404.348 716.533 C 1404.348 719.162 1402.219 721.29 1399.586 721.29 Z " fill="rgb(230,76,60)"/><path d=" M 1425.619 694.571 L 1320.857 694.571 C 1318.224 694.571 1316.095 692.443 1316.095 689.81 C 1316.095 687.176 1318.224 685.048 1320.857 685.048 L 1425.619 685.048 C 1428.252 685.048 1430.381 687.176 1430.381 689.81 C 1430.381 692.443 1428.252 694.571 1425.619 694.571 Z " fill="rgb(240,196,25)"/></g></g></g></svg>