<?xml version="1.0" standalone="no"?><!-- Generator: Gravit.io --><svg xmlns="http://www.w3.org/2000/svg" xmlns:xlink="http://www.w3.org/1999/xlink" style="isolation:isolate" viewBox="517 466 170 200" width="200" height="200"><defs><clipPath id="_clipPath_6hObv9BgkNkNIxLXL78MrfK6ybw8xWCn"><rect x="517" y="466" width="170" height="200"/></clipPath></defs><g clip-path="url(#_clipPath_6hObv9BgkNkNIxLXL78MrfK6ybw8xWCn)"><g><g><path d=" M 537.981 538.65 C 536.657 538.65 535.36 538.034 534.613 536.914 C 532.185 533.284 527.651 529.085 522.444 529.238 C 520.23 529.128 518.435 527.713 518.372 525.703 C 518.305 523.685 520.02 522.003 522.203 521.941 C 530.533 521.712 537.637 527.538 541.342 533.087 C 542.488 534.801 541.911 537.049 540.053 538.107 C 539.409 538.475 538.689 538.65 537.981 538.65 Z " fill="rgb(67,107,28)"/><g><path d=" M 618.898 490.07 C 618.369 482.963 611.968 477.345 604.132 477.345 C 604.108 477.345 604.088 477.349 604.065 477.349 C 604.203 476.272 604.124 475.134 603.748 473.949 C 602.689 470.614 599.51 468.053 595.77 467.641 C 592.702 467.305 589.887 468.319 587.915 470.118 C 586.037 468.553 583.577 467.575 580.85 467.575 C 575.002 467.575 570.266 471.949 570.266 477.341 C 570.266 477.36 570.27 477.374 570.27 477.393 C 563.165 477.889 557.563 483.357 557.563 490.041 C 557.563 491.063 557.709 492.051 557.955 493.003 C 549.498 493.328 542.745 499.742 542.745 507.626 C 542.745 510.296 543.532 512.792 544.884 514.948 C 542.287 516.918 540.626 519.906 540.626 523.251 C 540.626 526.308 542.03 529.048 544.252 531 C 553.788 523.809 563.806 547.859 575.603 567.059 C 579.521 573.436 621.852 566.643 625.224 570.605 C 629.067 567.417 631.55 511.89 631.656 507.013 C 631.822 499.187 626.438 492.511 618.898 490.07 Z " fill="rgb(136,192,87)"/></g><path d=" M 624.311 562.802 L 627.13 561.244 C 632.348 558.355 638.864 558.355 644.078 561.244 L 646.897 562.802 C 652.116 565.691 658.631 565.691 663.846 562.802 L 671.812 559.533 C 672.983 556.52 673.797 554.338 674.121 553.371 C 681.554 531.31 686.342 508.082 686.994 484.912 C 687.255 475.594 678.905 461.063 665.032 467.666 C 651.396 474.153 641.631 499.03 634.768 510.843 C 625.018 527.629 617.309 545.885 611.818 564.487 C 616 565.461 620.5 564.91 624.311 562.802 Z " fill="rgb(238,175,75)"/><path d=" M 521.527 559.055 L 526.844 561.999 C 532.952 565.381 540.583 565.381 546.691 561.999 L 548.059 561.24 C 553.278 558.351 559.793 558.351 565.008 561.24 L 567.827 562.798 C 570.891 564.495 574.401 565.166 577.833 564.87 C 580.363 557.329 579.513 547.902 575.591 541.522 C 562.402 520.052 551.431 524.426 540.875 533.747 C 538.851 535.535 536.376 536.844 533.68 537.556 C 522.104 540.609 513.56 545.604 518.419 559.205 C 519.277 558.628 520.471 558.471 521.527 559.055 Z " fill="rgb(237,63,50)"/><path d=" M 634.349 554.86 C 633.93 554.86 633.499 554.798 633.08 554.666 C 631.012 554.017 629.905 551.945 630.609 550.037 C 633.246 542.879 641.714 539.048 649.459 541.456 C 653.092 542.598 657.05 540.796 658.283 537.443 C 658.983 535.535 661.221 534.506 663.301 535.159 C 665.368 535.808 666.475 537.881 665.771 539.789 C 663.138 546.95 654.678 550.795 646.921 548.369 C 643.292 547.231 639.334 549.037 638.097 552.382 C 637.531 553.907 635.993 554.86 634.349 554.86 Z " fill="rgb(164,111,62)"/><path d=" M 643.699 529.442 C 643.28 529.442 642.849 529.38 642.43 529.249 C 640.362 528.599 639.255 526.527 639.959 524.619 C 641.236 521.15 643.901 518.344 647.459 516.724 C 651.017 515.105 655.046 514.86 658.809 516.038 C 662.451 517.184 666.4 515.378 667.634 512.022 C 668.333 510.11 670.579 509.085 672.647 509.738 C 674.714 510.387 675.821 512.46 675.118 514.368 C 672.485 521.533 664.024 525.371 656.267 522.952 C 654.508 522.397 652.618 522.51 650.954 523.269 C 649.289 524.028 648.044 525.338 647.443 526.965 C 646.885 528.486 645.348 529.442 643.699 529.442 Z " fill="rgb(164,111,62)"/><path d=" M 653.053 504.021 C 652.634 504.021 652.203 503.959 651.78 503.828 C 649.712 503.178 648.605 501.106 649.309 499.198 C 651.618 492.916 659.047 489.545 665.855 491.668 C 667.159 492.077 668.551 491.996 669.78 491.438 C 671.01 490.88 671.931 489.91 672.374 488.709 C 673.074 486.801 675.315 485.776 677.391 486.426 C 679.459 487.075 680.566 489.147 679.862 491.055 C 678.739 494.102 676.403 496.564 673.279 497.983 C 670.152 499.406 666.614 499.614 663.312 498.582 C 660.632 497.739 657.706 499.07 656.797 501.548 C 656.236 503.065 654.698 504.021 653.053 504.021 Z " fill="rgb(164,111,62)"/><g><path d=" M 586.029 517.425 C 582.293 522.011 576.398 527.439 578.667 537.027 L 584.771 562.802 C 584.771 562.802 584.775 562.802 584.775 562.802 L 587.594 561.244 C 592.813 558.355 599.328 558.355 604.543 561.244 L 607.362 562.802 C 609.655 564.071 611.818 564.491 611.818 564.491 C 615.937 550.544 621.302 536.79 627.837 523.707 C 624.777 516.644 618.242 514.28 613.498 511.861 C 613.47 511.847 613.442 511.832 613.419 511.821 C 610.418 510.234 610.232 506.444 612.49 504.028 C 613.379 503.076 613.79 501.766 613.482 500.453 L 613.004 498.439 C 612.478 496.221 610.082 494.806 607.682 495.291 L 583.657 500.128 C 581.253 500.614 579.719 502.824 580.245 505.039 L 580.723 507.053 C 581.039 508.395 582.044 509.435 583.317 509.942 C 586.238 511.106 588.021 514.116 586.527 516.71 C 586.384 516.954 586.218 517.191 586.029 517.425 Z " fill="rgb(218,231,239)"/></g><path d=" M 611.236 505.765 L 584.04 511.248 C 581.039 511.854 578.043 510.081 577.386 507.312 L 576.995 505.663 C 576.339 502.894 578.26 500.128 581.261 499.523 L 608.457 494.039 C 611.458 493.434 614.455 495.207 615.111 497.976 L 615.502 499.625 C 616.159 502.398 614.237 505.159 611.236 505.765 Z " fill="rgb(255,255,255)"/><path d=" M 678.723 558.42 L 671.824 649.732 C 671.318 658.849 663.162 666 653.27 666 L 542.291 666 C 532.399 666 524.243 658.849 523.737 649.732 L 517.004 561.415 C 516.889 559.34 519.329 557.986 521.262 559.055 L 526.579 561.999 C 532.688 565.381 540.318 565.381 546.426 561.999 L 547.794 561.24 C 553.013 558.351 559.528 558.351 564.743 561.24 L 567.562 562.802 C 572.78 565.691 579.296 565.691 584.511 562.802 L 587.329 561.24 C 592.548 558.351 599.063 558.351 604.278 561.24 L 607.097 562.802 C 612.316 565.691 618.831 565.691 624.046 562.802 L 626.865 561.24 C 632.083 558.351 638.599 558.351 643.814 561.24 L 646.632 562.802 C 651.851 565.691 658.367 565.691 663.581 562.802 L 676.972 557.311 C 677.822 556.961 678.771 557.563 678.723 558.42 Z " fill="rgb(251,212,144)"/><path d=" M 564.442 619.229 L 536.768 619.229 C 534.585 619.229 532.814 617.599 532.814 615.581 C 532.814 613.564 534.585 611.933 536.768 611.933 L 564.442 611.933 C 566.625 611.933 568.396 613.564 568.396 615.581 C 568.396 617.599 566.625 619.229 564.442 619.229 Z " fill="rgb(224,184,119)"/><path d=" M 572.349 633.822 L 536.768 633.822 C 534.585 633.822 532.814 632.192 532.814 630.174 C 532.814 628.157 534.585 626.526 536.768 626.526 L 572.349 626.526 C 574.532 626.526 576.303 628.157 576.303 630.174 C 576.303 632.192 574.532 633.822 572.349 633.822 Z " fill="rgb(224,184,119)"/><path d=" M 580.257 648.415 L 536.768 648.415 C 534.585 648.415 532.814 646.785 532.814 644.767 C 532.814 642.75 534.585 641.119 536.768 641.119 L 580.257 641.119 C 582.439 641.119 584.21 642.75 584.21 644.767 C 584.21 646.785 582.439 648.415 580.257 648.415 Z " fill="rgb(224,184,119)"/><path d=" M 603.978 648.415 L 596.071 648.415 C 593.888 648.415 592.117 646.785 592.117 644.767 C 592.117 642.75 593.888 641.119 596.071 641.119 L 603.978 641.119 C 606.16 641.119 607.931 642.75 607.931 644.767 C 607.931 646.785 606.16 648.415 603.978 648.415 Z " fill="rgb(224,184,119)"/></g></g></g></svg>