<?xml version="1.0" standalone="no"?><!-- Generator: Gravit.io --><svg xmlns="http://www.w3.org/2000/svg" xmlns:xlink="http://www.w3.org/1999/xlink" style="isolation:isolate" viewBox="0 0 200 200" width="200" height="200"><defs><clipPath id="_clipPath_TjILOGWkhZCRPJz0G1Z0lCymrUyfhuRh"><rect width="200" height="200"/></clipPath></defs><g clip-path="url(#_clipPath_TjILOGWkhZCRPJz0G1Z0lCymrUyfhuRh)"><g><path d=" M 47.783 63.908 L 48.946 61.582 C 50.225 59.024 51.388 57.861 53.016 55.42 C 56.853 49.722 60.69 47.629 65.922 43.327 C 77.239 34.086 91.316 28.889 105.922 28.559 L 109.759 28.443 L 110.922 28.443 C 120.168 28.402 129.371 29.694 138.247 32.28 C 142.168 33.332 146.047 34.534 149.875 35.885 C 154.969 37.832 159.779 40.453 164.177 43.675 C 171.793 49.382 177.703 57.062 181.27 65.885 C 183.48 71.35 184.759 77.047 185.573 82.745 C 187.117 95.876 185.358 109.186 180.456 121.466 C 176.825 130.992 171.551 139.807 164.875 147.512 C 159.001 153.953 151.881 159.135 143.945 162.744 C 136.721 165.648 128.903 166.765 121.155 166 L 120.341 165.884 L 119.759 165.651 L 118.945 165.535 C 114.021 164.441 108.99 163.895 103.945 163.907 C 100.922 163.907 97.783 164.14 94.759 164.954 C 91.667 165.736 88.775 167.163 86.271 169.14 L 84.876 170.302 L 84.294 171 C 82.899 172.163 81.504 173.326 79.992 174.256 C 79.109 174.883 78.126 175.354 77.085 175.651 C 76.485 175.857 75.858 175.975 75.225 176 C 74.22 175.992 73.243 175.666 72.434 175.07 C 71.271 174.256 64.527 168.093 67.201 152.977 C 67.55 151.349 63.713 152.744 63.364 152.744 C 56.504 152.977 52.085 144.837 51.271 142.628 C 41.969 146.93 30.806 144.837 29.992 144.605 C 28.421 144.302 26.896 143.794 25.458 143.093 C 23.775 142.239 22.424 140.848 21.62 139.14 C 21.228 138.183 21.068 137.147 21.155 136.117 C 21.231 135.14 21.508 134.19 21.969 133.326 C 22.529 131.892 23.314 130.558 24.295 129.372 L 26.62 127.047 C 24.286 126.39 22.026 125.494 19.876 124.372 C 19.232 124.025 18.611 123.636 18.016 123.21 C 17.316 122.675 16.69 122.05 16.155 121.349 C 15.767 120.855 15.454 120.307 15.225 119.721 C 14.825 118.633 14.825 117.438 15.225 116.349 L 15.69 115.419 L 16.155 114.605 C 16.95 113.409 17.931 112.349 19.062 111.466 C 17.725 110.269 16.552 108.9 15.574 107.396 C 14.411 105.807 13.762 103.9 13.713 101.931 C 13.772 101.128 13.968 100.341 14.295 99.605 C 14.545 99.103 14.857 98.634 15.225 98.21 L 15.341 97.977 L 16.969 96.466 C 19.125 94.574 21.462 92.899 23.946 91.466 C 23.946 91.001 23.713 90.536 23.597 90.187 C 21.508 84.083 20.409 77.684 20.341 71.233 C 20.514 68.262 21.223 65.347 22.434 62.629 C 23.246 61.037 24.306 59.585 25.574 58.326 L 25.806 58.094 C 25.939 57.951 26.097 57.833 26.272 57.745 L 26.737 57.745 L 27.202 57.629 L 30.574 57.047 C 32.551 57.047 41.969 56.35 47.783 63.792 L 47.783 63.908 Z " fill-rule="evenodd" fill="rgb(0,0,0)" fill-opacity="0.2"/><path d=" M 52.667 59.489 L 53.829 57.164 C 55.109 54.606 56.271 53.443 57.899 51.001 C 61.853 45.303 65.574 43.21 70.922 38.908 C 83.245 28.875 98.758 23.594 114.643 24.024 L 115.806 24.024 C 125.051 23.983 134.254 25.276 143.131 27.862 C 147.053 28.909 150.932 30.111 154.759 31.466 C 159.852 33.414 164.662 36.034 169.061 39.257 C 176.672 44.968 182.582 52.646 186.154 61.466 C 188.48 66.931 189.759 72.629 190.456 78.326 C 192.001 91.458 190.242 104.767 185.34 117.047 C 181.744 126.565 176.51 135.38 169.875 143.093 C 164.014 149.549 156.89 154.734 148.945 158.326 C 141.702 161.309 133.826 162.428 126.038 161.582 L 125.341 161.465 L 125.108 161.465 L 124.643 161.349 L 123.945 161.116 C 118.982 160.016 113.912 159.47 108.829 159.488 C 105.806 159.488 102.666 159.837 99.643 160.651 C 96.559 161.396 93.667 162.783 91.155 164.721 L 89.759 166 L 89.178 166.581 L 84.876 169.954 L 82.085 171.233 C 80.716 171.728 79.205 171.644 77.899 171 C 77.694 170.903 77.5 170.786 77.318 170.651 C 76.271 169.837 69.527 163.675 72.201 148.558 C 72.434 146.93 68.713 148.442 68.248 148.442 C 61.504 148.442 56.969 140.419 56.155 138.21 C 46.853 142.512 35.69 140.419 34.992 140.303 C 33.955 140.097 32.942 139.786 31.969 139.372 L 31.155 139.14 L 30.341 138.675 C 28.663 137.813 27.315 136.424 26.504 134.721 C 26.102 133.727 25.942 132.65 26.039 131.582 C 26.174 130.654 26.448 129.753 26.853 128.907 L 27.783 127.163 C 28.788 125.439 30.086 123.904 31.62 122.628 C 29.244 121.985 26.945 121.088 24.76 119.954 C 24.115 119.608 23.493 119.22 22.899 118.791 C 22.196 118.26 21.57 117.634 21.039 116.931 C 20.653 116.477 20.34 115.968 20.109 115.419 C 19.656 114.3 19.656 113.049 20.109 111.931 C 20.24 111.609 20.396 111.298 20.574 111 L 21.039 110.303 C 21.831 109.072 22.812 107.973 23.946 107.047 C 22.82 106.003 21.734 104.917 20.69 103.791 C 19.241 102.021 18.459 99.799 18.481 97.512 C 18.539 96.709 18.736 95.922 19.062 95.187 C 19.358 94.619 19.752 94.107 20.225 93.675 C 22.389 91.491 24.81 89.578 27.434 87.977 L 28.83 87.163 L 28.365 85.884 C 26.99 82.002 26.016 77.989 25.458 73.908 C 25.109 71.582 24.992 69.257 25.109 66.931 C 25.318 63.953 26.067 61.037 27.318 58.326 C 28.097 56.646 29.159 55.112 30.458 53.792 L 30.806 53.792 C 30.904 53.658 31.022 53.541 31.155 53.443 L 31.737 53.443 L 32.085 53.327 L 35.574 52.745 C 37.434 52.745 46.853 52.047 52.667 59.606 L 52.667 59.489 Z " fill-rule="evenodd" fill="rgb(255,255,255)" vector-effect="non-scaling-stroke" stroke-width="0.419" stroke="rgb(207,207,207)" stroke-linejoin="round" stroke-linecap="butt" stroke-miterlimit="1.41"/><path d=" M 54.062 67.629 C 58.481 57.28 81.853 13.792 148.712 35.652 C 213.828 57.047 180.34 162.861 123.713 155.651 C 123.713 155.651 100.457 149.372 89.992 159.488 C 72.783 176.116 76.271 149.954 77.201 146.465 C 78.597 141 80.341 133.675 89.527 123.21 C 86.039 125.186 79.527 130.535 78.015 136 C 75.922 143.907 65.574 146.698 60.225 133.558 C 59.961 132.896 59.69 132.237 59.411 131.582 L 47.667 135.303 C 39.644 137.977 26.853 134.489 32.085 125.535 C 33.597 122.977 35.574 121.233 37.551 119.954 C 29.876 118.326 23.016 114.605 25.341 110.303 C 26.504 108.326 27.899 106.931 29.411 106.001 C 20.458 98.559 25.109 94.14 25.109 94.14 C 25.806 93.094 28.946 90.652 33.83 87.745 C 32.085 83.326 25.69 65.303 35.109 56.815 C 35.109 56.815 44.76 55.303 54.062 67.629 Z " fill-rule="evenodd" fill="rgb(211,98,68)"/><path d=" M 125.806 106.582 C 125.922 107.163 119.643 108.907 119.527 107.977 C 118.881 95.398 123.766 83.164 132.899 74.489 C 132.899 74.489 122.201 87.745 125.922 106.466 L 125.806 106.582 Z  M 57.202 76.815 C 56.736 74.838 61.969 53.792 86.039 42.164 C 86.039 42.164 67.434 53.559 64.876 77.977 L 62.55 80.303 L 57.202 76.815 Z " fill-rule="evenodd" fill="rgb(221,134,111)"/><path d=" M 97.085 119.605 L 91.736 122.279 C 90.457 122.047 80.108 128.907 78.015 136 C 77.783 137.163 77.201 138.326 76.62 139.256 C 67.783 95.187 94.643 92.396 109.41 93.908 L 115.108 99.489 C 117.085 101.582 116.62 104.14 114.876 106.466 L 108.596 112.628 L 107.434 113.442 L 108.248 113.094 L 116.155 108.907 L 136.736 113.559 L 121.503 119.373 L 127.899 123.326 L 121.271 129.954 L 138.713 134.256 L 121.271 144.256 L 134.759 145.768 L 126.155 152.279 L 133.131 155.768 C 129.992 156 126.852 156 123.713 155.535 C 123.713 155.535 100.457 149.372 89.992 159.488 C 72.783 176 76.271 149.954 77.201 146.465 C 78.829 140.186 83.248 126.117 95.457 120.535 L 97.085 119.605 Z  M 24.295 95.187 C 32.202 93.326 76.271 84.722 64.643 140.303 C 62.689 138.409 61.18 136.106 60.225 133.558 C 56.388 124.256 52.202 122.163 49.295 120.186 C 42.68 115.928 36.277 111.349 30.109 106.466 C 23.132 101.001 23.481 97.163 24.295 95.303 L 24.295 95.187 Z  M 101.736 87.977 C 101.736 87.977 108.248 76.931 103.48 69.373 C 103.48 69.373 96.504 66.815 87.434 81.931 C 87.434 81.931 95.225 84.257 97.666 85.303 C 99.062 85.884 101.736 87.977 101.736 87.977 Z  M 38.946 85.07 C 38.946 85.07 33.365 73.443 38.597 66.35 C 44.411 66.117 49.062 69.722 53.132 79.373 L 38.946 85.07 Z " fill-rule="evenodd" fill="rgb(239,201,188)"/><path d=" M 53.946 65.768 C 55.395 62.511 57.147 59.396 59.178 56.466 C 66.309 46.255 76.186 38.272 87.666 33.443 C 95.859 30.109 104.636 28.448 113.48 28.559 L 114.527 28.559 C 123.259 28.523 131.952 29.737 140.34 32.164 C 144.028 33.139 147.675 34.264 151.271 35.536 C 156.057 37.35 160.591 39.773 164.759 42.745 C 172.012 47.988 177.651 55.158 181.038 63.443 C 183.015 68.443 184.294 73.908 184.991 79.14 C 186.405 91.375 184.726 103.769 180.108 115.187 C 176.716 124.098 171.753 132.329 165.457 139.489 C 158.493 147.613 149.128 153.314 138.713 155.768 C 133.997 156.916 129.118 157.231 124.294 156.698 L 123.48 156.582 L 122.899 156.465 L 122.201 156.233 C 117.537 155.242 112.783 154.736 108.015 154.721 C 105.108 154.721 102.201 155.07 99.294 155.768 C 96.387 156.49 93.658 157.795 91.271 159.605 L 90.108 160.768 L 89.411 161.349 C 88.248 162.512 86.852 163.558 85.341 164.488 C 84.503 164.99 83.604 165.381 82.666 165.651 C 82.07 165.868 81.441 165.986 80.806 166 C 80.112 165.957 79.436 165.758 78.829 165.419 L 78.248 165.186 C 77.25 164.374 76.521 163.28 76.155 162.047 L 76.039 161.465 L 75.806 160.651 L 75.573 159.605 C 75.399 158.49 75.321 157.361 75.341 156.233 C 75.171 153.511 75.327 150.778 75.806 148.093 L 76.271 146.349 L 76.736 144.372 L 77.434 142.047 C 78.759 137.49 80.8 133.172 83.48 129.256 C 82.582 130.305 81.728 131.391 80.922 132.512 C 80.22 133.569 79.635 134.7 79.178 135.884 L 78.946 136.698 L 78.829 137.163 L 77.55 139.605 C 76.279 141.478 74.383 142.839 72.201 143.442 C 70.904 143.767 69.546 143.767 68.248 143.442 C 67.261 143.207 66.319 142.815 65.457 142.279 C 64.502 141.625 63.642 140.842 62.899 139.954 C 61.484 138.372 60.344 136.564 59.527 134.605 L 59.062 133.326 L 58.829 132.861 L 52.434 134.838 L 49.527 135.768 L 47.783 136.349 L 47.318 136.349 L 46.155 136.814 C 42.285 137.529 38.292 137.126 34.644 135.651 L 33.946 135.419 C 32.601 134.733 31.474 133.686 30.69 132.396 C 30.338 131.827 30.101 131.195 29.992 130.535 L 29.992 128.791 C 30.047 127.913 30.243 127.049 30.574 126.233 L 31.504 124.605 C 32.456 123.013 33.676 121.597 35.109 120.419 C 32.235 119.619 29.493 118.405 26.969 116.814 C 26.275 116.318 25.649 115.731 25.109 115.07 C 24.774 114.645 24.5 114.176 24.295 113.675 C 23.899 112.666 23.899 111.545 24.295 110.535 C 24.425 110.213 24.58 109.902 24.76 109.605 L 25.225 108.907 C 25.954 107.767 26.856 106.747 27.899 105.884 L 26.969 105.07 C 26.481 104.588 26.015 104.084 25.574 103.559 L 24.992 102.745 L 24.527 102.163 C 23.481 100.661 22.913 98.878 22.899 97.047 C 22.939 96.241 23.137 95.451 23.481 94.722 C 23.712 94.307 23.985 93.918 24.295 93.559 L 24.411 93.326 L 25.923 91.931 C 27.575 90.479 29.367 89.194 31.272 88.094 L 32.667 87.28 L 32.202 86.117 C 30.234 80.431 29.213 74.46 29.178 68.443 C 29.329 65.631 29.999 62.871 31.155 60.303 C 31.92 58.881 32.9 57.587 34.062 56.466 L 34.295 56.117 L 34.76 55.885 L 35.225 55.768 L 36.969 55.768 C 39.295 55.885 41.504 56.582 43.597 57.513 C 47.434 59.257 50.574 62.164 53.364 65.303 L 53.829 65.768 L 53.946 65.768 Z  M 118.131 109.605 L 116.736 110.07 C 114.423 110.836 112.169 111.769 109.992 112.861 C 106.464 115.667 102.643 118.084 98.597 120.07 C 96.62 121.233 90.922 123.675 90.225 124.024 C 86.917 127.824 84.069 132 81.736 136.465 C 80.362 139.284 79.309 142.249 78.597 145.303 L 78.364 146.233 L 78.132 147.047 C 77.275 151.413 77.118 155.887 77.667 160.302 C 77.832 160.855 78.026 161.398 78.248 161.93 L 78.364 162.279 C 78.713 162.861 79.178 163.442 79.76 163.791 L 80.108 163.907 L 80.69 164.023 L 81.62 164.023 L 83.248 163.442 L 85.573 161.93 L 88.248 159.837 L 89.411 158.675 L 89.759 158.442 C 91.86 156.546 94.365 155.154 97.085 154.372 C 100.622 153.278 104.314 152.767 108.015 152.861 C 110.93 152.738 113.85 152.893 116.736 153.326 C 119.161 153.668 121.567 154.134 123.945 154.721 L 124.527 154.721 C 126.377 154.962 128.242 155.078 130.108 155.07 L 125.922 152.861 L 125.806 152.861 L 125.689 152.744 C 125.565 152.529 125.565 152.263 125.689 152.047 L 125.689 151.814 L 133.131 146.349 L 121.155 144.954 L 121.038 144.954 L 120.806 144.721 C 120.584 144.495 120.584 144.133 120.806 143.907 L 120.922 143.907 L 137.085 134.605 L 121.155 130.652 L 120.922 130.652 L 120.806 130.419 C 120.702 130.239 120.702 130.017 120.806 129.838 L 120.806 129.605 L 126.968 123.559 L 121.155 120.07 L 120.922 119.838 C 120.767 119.631 120.767 119.347 120.922 119.14 L 121.155 119.024 L 134.643 113.791 L 118.248 109.605 L 118.131 109.605 Z  M 132.55 154.954 C 137.84 154.424 142.996 152.967 147.782 150.651 L 150.224 149.489 C 159.242 144.337 166.681 136.818 171.736 127.745 C 179.039 115.869 183.052 102.264 183.363 88.326 C 183.537 79.913 181.953 71.557 178.712 63.792 L 178.712 63.908 C 178.513 74.671 175.55 85.201 170.108 94.489 C 167.648 98.054 164.432 101.032 160.689 103.21 C 157.195 105.148 153.288 106.224 149.294 106.349 L 143.829 106.349 C 136.009 106.387 128.214 107.244 120.573 108.907 L 136.852 113.094 L 136.968 113.094 L 137.201 113.326 L 137.201 114.024 L 136.968 114.14 L 122.782 119.605 L 128.248 122.861 L 128.364 123.093 L 128.364 123.907 L 122.434 129.721 L 138.713 133.791 L 138.945 133.791 L 139.178 134.024 L 139.178 134.721 L 139.061 134.838 L 138.945 134.838 L 123.131 143.907 L 134.759 145.303 L 134.992 145.303 L 135.108 145.535 C 135.34 145.651 135.34 145.884 135.34 146.117 L 135.224 146.349 L 135.108 146.349 L 127.317 152.163 L 132.55 154.954 Z  M 75.341 139.14 L 75.573 138.675 C 76.142 137.858 76.574 136.955 76.853 136 L 77.085 135.535 L 77.085 135.186 L 77.55 134.14 C 78.248 132.512 79.294 131 80.457 129.489 C 82.591 126.875 85.145 124.635 88.015 122.861 L 93.945 119.954 C 96.637 118.667 99.275 117.27 101.852 115.768 C 102.783 115.187 107.317 111.814 108.248 111.349 L 109.062 110.884 L 109.876 110.187 L 111.387 109.024 L 112.434 107.861 L 113.248 107.047 L 113.829 106.233 L 114.294 105.535 C 114.473 105.279 114.629 105.006 114.759 104.721 C 115.139 103.967 115.3 103.121 115.224 102.28 L 115.224 101.815 C 115.028 101.214 114.711 100.66 114.294 100.187 C 97.517 79.348 68.74 72.549 44.411 83.675 C 38.06 86.295 32.079 89.735 26.62 93.908 C 26.328 94.157 26.056 94.43 25.806 94.722 L 25.806 94.838 L 25.574 94.954 C 25.295 95.337 25.098 95.772 24.992 96.233 L 24.76 96.815 C 24.76 97.977 24.992 99.14 25.574 100.303 L 25.923 100.768 C 27.13 102.589 28.668 104.166 30.458 105.419 L 32.434 107.047 C 38.056 111.366 43.836 115.478 49.76 119.373 L 51.388 120.419 L 51.853 120.768 C 53.109 121.662 54.277 122.674 55.341 123.791 C 57.639 126.261 59.453 129.14 60.69 132.279 L 61.271 133.675 L 61.504 134.14 C 62.26 135.716 63.196 137.199 64.295 138.558 L 65.225 139.605 C 67.085 137.861 70.341 136.349 75.341 139.14 Z  M 37.667 121.117 C 37.667 121.117 37.434 121.117 37.318 121.349 C 35.614 122.496 34.185 124.005 33.132 125.768 C 33.132 126 32.899 126.117 32.783 126.349 L 32.551 126.931 C 31.989 128.044 31.825 129.316 32.085 130.535 L 32.318 131.233 L 33.016 132.163 C 33.481 132.628 33.946 133.093 34.527 133.326 C 35.225 133.791 36.155 134.14 36.969 134.489 C 38.364 134.838 39.76 135.07 41.155 135.07 C 44.064 135.247 46.974 134.729 49.643 133.558 L 57.899 131 C 56.325 127.728 54.017 124.863 51.155 122.628 L 49.411 121.466 C 45.546 122.064 41.605 121.946 37.783 121.117 L 37.667 121.117 Z  M 29.527 107.163 L 29.178 107.396 C 27.936 108.396 26.941 109.669 26.272 111.117 C 26.074 111.512 25.993 111.956 26.039 112.396 C 26.039 112.861 26.388 113.326 26.62 113.675 L 27.667 114.838 L 29.76 116.233 C 30.923 116.931 32.318 117.396 33.597 117.861 C 37.81 119.356 42.27 120.027 46.737 119.838 L 46.271 119.373 C 44.026 117.955 41.816 116.482 39.644 114.954 L 29.527 107.28 L 29.527 107.163 Z  M 49.643 105.07 L 50.574 105.535 C 50.806 105.768 50.806 106.349 50.923 106.582 L 50.923 107.047 C 50.923 107.28 51.039 108.094 51.271 108.442 C 51.432 108.998 51.71 109.514 52.085 109.954 L 52.434 110.187 L 55.225 111 L 55.806 111 L 56.62 110.884 L 57.55 110.768 C 57.783 110.768 58.364 110.768 58.713 111 L 59.178 111.814 C 59.178 112.047 59.178 112.628 58.946 112.977 C 58.829 113.21 58.248 113.442 58.015 113.559 L 57.667 113.559 C 57.318 113.559 56.969 113.791 56.504 113.675 C 55.69 113.675 53.481 113.675 52.434 113.326 C 51.504 113.094 50.574 112.163 50.109 111.931 C 49.39 110.643 48.731 109.324 48.132 107.977 L 48.132 106.349 L 48.597 105.419 C 48.83 105.187 49.411 105.187 49.527 105.07 L 49.643 105.07 Z  M 91.736 105.419 L 92.201 106.349 L 92.201 107.628 L 90.69 111.349 L 90.108 111.931 L 89.294 112.628 C 88.829 112.861 88.132 113.326 87.434 113.442 C 86.271 113.675 83.946 113.675 83.015 113.675 L 82.201 113.559 L 81.271 112.977 L 81.039 111.814 C 81.155 111.814 81.387 111.117 81.62 111 C 81.969 110.768 82.783 110.768 82.899 110.768 L 83.48 110.768 L 84.294 111 L 85.225 111 L 87.899 110.07 C 88.132 110.07 88.248 109.838 88.364 109.721 C 88.547 109.508 88.703 109.274 88.829 109.024 C 88.976 108.646 89.093 108.257 89.178 107.861 L 89.294 107.047 L 89.294 106.582 C 89.411 106.349 89.527 105.768 89.759 105.535 C 89.876 105.303 90.457 105.187 90.69 105.07 C 90.922 105.07 91.504 105.187 91.736 105.419 Z  M 176.503 59.024 C 171.985 50.99 165.187 44.476 156.968 40.303 C 154.875 39.141 152.666 38.21 150.457 37.396 L 146.038 35.885 L 139.643 34.141 C 131.628 32.012 123.397 30.803 115.108 30.536 L 113.829 30.536 C 107.438 30.615 101.078 31.434 94.876 32.978 C 77.232 37.926 62.728 50.51 55.341 67.28 L 55.225 67.28 C 55.457 67.861 55.806 68.21 56.155 68.675 C 57.94 71.41 59.495 74.288 60.806 77.28 L 61.155 77.28 C 63.481 77.047 65.806 76.815 68.132 76.815 L 69.294 76.815 C 73.122 76.825 76.939 77.214 80.69 77.977 C 81.376 76.646 82.153 75.364 83.015 74.14 C 84.859 71.424 86.962 68.893 89.294 66.582 C 92.453 63.402 96.317 61.011 100.573 59.606 C 102.96 58.966 105.45 58.807 107.899 59.14 L 108.248 59.14 L 108.48 59.373 L 108.713 59.606 L 108.829 59.606 L 109.643 60.768 C 110.93 62.499 111.841 64.479 112.317 66.582 C 112.926 70.602 112.808 74.698 111.969 78.675 C 111.091 82.612 109.765 86.436 108.015 90.07 L 107.55 91.001 L 111.503 94.489 L 113.596 96.466 L 113.713 95.768 C 114.386 90.669 115.796 85.695 117.899 81.001 C 119.82 76.638 122.773 72.807 126.503 69.838 C 128.494 68.355 130.741 67.252 133.131 66.582 C 135.25 65.983 137.44 65.67 139.643 65.652 L 139.992 65.652 C 143.946 65.806 147.86 66.51 151.619 67.745 L 152.433 69.024 L 151.154 69.605 L 150.457 69.489 C 147.264 68.416 143.938 67.79 140.573 67.629 C 137.086 67.551 133.627 68.267 130.457 69.722 C 129.12 70.379 127.871 71.199 126.736 72.164 C 123.576 74.833 121.103 78.223 119.527 82.047 C 118.372 84.627 117.477 87.314 116.852 90.07 L 115.341 98.094 L 115.806 98.791 L 116.038 99.024 C 116.596 99.701 116.994 100.496 117.201 101.349 L 117.434 102.163 L 117.434 102.745 C 117.339 104.094 116.854 105.387 116.038 106.466 C 116.038 106.698 115.806 106.814 115.689 107.047 L 115.108 107.745 C 115.108 107.977 114.876 108.21 114.643 108.326 C 118.565 106.949 122.617 105.975 126.736 105.419 C 133.122 104.455 139.582 104.066 146.038 104.256 L 148.015 104.256 C 150.415 104.13 152.793 103.74 155.108 103.094 C 157.558 102.394 159.876 101.293 161.968 99.838 C 164.41 98.094 166.619 95.768 168.363 93.326 C 171.509 88.865 173.687 83.795 174.759 78.443 C 176.259 72.597 176.925 66.568 176.736 60.536 L 176.736 59.606 L 176.503 59.373 L 176.503 59.024 Z  M 105.806 89.838 C 108.042 84.996 109.607 79.871 110.457 74.605 L 110.69 73.094 L 110.69 71.931 C 110.788 68.815 110.067 65.727 108.596 62.978 C 108.18 62.323 107.713 61.701 107.201 61.117 L 103.713 61.117 C 100.573 61.582 97.666 62.861 94.992 64.605 L 93.945 65.419 C 91.175 67.379 88.74 69.774 86.736 72.512 C 85.293 74.443 83.973 76.463 82.783 78.559 C 84.47 78.947 86.138 79.412 87.783 79.954 L 91.387 74.838 C 92.55 73.559 93.713 72.28 95.225 71.117 C 97.106 69.659 99.366 68.771 101.736 68.559 L 102.085 68.559 C 102.55 68.559 103.248 68.559 103.713 68.792 L 103.829 68.792 L 103.945 69.024 L 104.062 69.024 L 104.178 69.373 C 104.396 69.748 104.59 70.136 104.759 70.536 C 105.573 72.512 105.69 74.722 105.573 76.931 L 105.457 78.094 C 105.327 79.237 105.094 80.365 104.759 81.466 C 104.217 83.494 103.517 85.477 102.666 87.396 L 105.922 89.838 L 105.806 89.838 Z  M 101.504 86.815 C 102.767 83.833 103.665 80.71 104.178 77.512 L 104.178 76.35 C 104.358 74.153 103.957 71.947 103.015 69.954 C 102.671 69.88 102.321 69.841 101.969 69.838 L 101.736 69.838 C 99.752 69.904 97.839 70.596 96.271 71.815 L 95.457 72.396 C 92.889 74.753 90.659 77.453 88.829 80.419 C 93.326 82.048 97.619 84.194 101.62 86.815 L 101.504 86.815 Z  M 58.713 77.745 C 56.483 73.14 53.669 68.841 50.341 64.954 L 48.713 63.326 C 46.585 61.33 44.1 59.752 41.388 58.675 C 39.782 58.099 38.093 57.785 36.388 57.745 L 35.458 57.745 C 34.542 58.593 33.758 59.573 33.132 60.652 C 31.737 63.21 31.039 66.233 31.039 69.257 L 31.039 70.652 C 31.044 73.154 31.317 75.649 31.853 78.094 C 32.432 80.859 33.209 83.579 34.178 86.233 C 34.527 86.233 34.76 86.001 35.109 85.884 C 35.923 85.303 36.969 84.838 37.899 84.373 L 37.667 83.908 C 36.593 80.515 35.968 76.997 35.806 73.443 C 35.806 72.28 36.039 71.001 36.271 69.954 C 36.566 68.584 37.118 67.281 37.899 66.117 L 38.132 65.768 L 38.481 65.768 L 38.713 65.652 L 39.76 65.652 C 41.267 65.685 42.743 66.084 44.062 66.815 C 47.697 69.322 50.621 72.727 52.55 76.698 L 53.248 78.326 L 53.597 78.791 L 58.713 77.629 L 58.713 77.745 Z  M 52.318 79.024 C 51.42 77.084 50.37 75.217 49.178 73.443 C 48.178 71.99 47.006 70.663 45.69 69.489 L 45.109 68.908 C 43.663 67.695 41.874 66.963 39.992 66.815 L 38.946 66.815 L 38.597 67.512 C 37.526 69.507 37.042 71.765 37.202 74.024 C 37.221 76.226 37.534 78.416 38.132 80.536 L 39.062 83.908 C 43.357 81.865 47.834 80.23 52.434 79.024 L 52.318 79.024 Z " fill-rule="evenodd" fill="rgb(67,50,49)"/></g></g></svg>