<?xml version="1.0" standalone="no"?><!-- Generator: Gravit.io --><svg xmlns="http://www.w3.org/2000/svg" xmlns:xlink="http://www.w3.org/1999/xlink" style="isolation:isolate" viewBox="387 152 200 200" width="200" height="200"><defs><clipPath id="_clipPath_TEgf9m6hsfVEE6GPgftWdVWNMZD8okve"><rect x="387" y="152" width="200" height="200"/></clipPath></defs><g clip-path="url(#_clipPath_TEgf9m6hsfVEE6GPgftWdVWNMZD8okve)"><g><circle vector-effect="non-scaling-stroke" cx="487" cy="252" r="100.00000000000003" fill="rgb(66,74,96)"/><path d=" M 570.269 226.238 C 569.776 224.397 567.883 223.297 566.045 223.8 L 558.221 225.897 C 556.948 221.869 555.334 217.959 553.393 214.197 L 560.393 210.155 C 562.045 209.203 562.607 207.093 561.655 205.445 C 560.703 203.793 558.59 203.224 556.945 204.183 L 549.893 208.255 C 547.583 204.645 545.045 201.259 542.241 198.183 L 547.955 192.469 C 549.303 191.121 549.303 188.941 547.955 187.593 C 546.607 186.245 544.428 186.245 543.079 187.593 L 537.379 193.293 C 534.231 190.424 530.848 187.886 527.307 185.628 L 531.362 178.607 C 532.314 176.955 531.752 174.848 530.1 173.897 C 528.448 172.941 526.338 173.507 525.39 175.159 L 521.324 182.2 C 517.562 180.262 513.652 178.672 509.631 177.397 L 511.745 169.507 C 512.238 167.669 511.145 165.776 509.307 165.283 C 507.455 164.776 505.576 165.883 505.083 167.721 L 502.969 175.61 C 498.859 174.703 494.676 174.128 490.448 173.924 L 490.448 165.793 C 490.448 163.886 488.903 162.345 487 162.345 C 485.097 162.345 483.552 163.886 483.552 165.793 L 483.552 173.903 C 479.355 174.09 475.159 174.597 470.997 175.507 L 468.91 167.721 C 468.417 165.883 466.538 164.776 464.686 165.283 C 462.848 165.776 461.755 167.666 462.248 169.507 L 464.338 177.31 C 460.369 178.572 456.483 180.238 452.672 182.207 L 448.603 175.159 C 447.652 173.503 445.545 172.938 443.897 173.897 C 442.245 174.848 441.683 176.959 442.634 178.607 L 446.676 185.603 C 443.09 187.903 439.738 190.483 436.641 193.317 L 430.917 187.593 C 429.569 186.245 427.39 186.245 426.041 187.593 C 424.693 188.941 424.693 191.121 426.041 192.469 L 431.779 198.207 C 428.934 201.341 426.366 204.7 424.097 208.252 L 417.052 204.186 C 415.397 203.231 413.293 203.797 412.341 205.448 C 411.39 207.1 411.955 209.207 413.603 210.159 L 420.655 214.231 C 418.724 217.972 417.103 221.879 415.817 225.91 L 407.952 223.8 C 406.121 223.3 404.221 224.4 403.728 226.238 C 403.234 228.076 404.324 229.969 406.166 230.462 L 414.031 232.572 C 412.866 237.866 412.234 243.314 412.252 248.852 C 412.255 250.755 413.8 252.29 415.7 252.29 C 415.703 252.29 415.707 252.29 415.71 252.29 C 417.614 252.283 419.155 250.734 419.148 248.831 C 419.097 231.714 425.534 215.452 436.652 203.083 L 462.755 229.186 C 460.117 232.486 458.148 236.314 457.021 240.521 C 454.872 248.524 455.976 256.89 460.117 264.066 C 465.655 273.638 475.959 279.586 487.024 279.586 C 492.441 279.586 497.8 278.145 502.514 275.424 C 509.693 271.283 514.824 264.59 516.969 256.583 C 519.117 248.579 518.014 240.214 513.872 233.038 C 513.086 231.679 512.183 230.414 511.217 229.207 L 537.369 203.055 C 540.514 206.538 543.359 210.383 545.797 214.607 C 551.769 224.952 554.893 236.786 554.831 248.828 C 554.821 250.731 556.359 252.283 558.262 252.293 C 558.266 252.293 558.272 252.293 558.279 252.293 C 560.176 252.293 561.717 250.762 561.728 248.862 C 561.755 243.355 561.145 237.897 559.99 232.569 L 567.828 230.466 C 569.672 229.969 570.762 228.079 570.269 226.238 Z  M 486.976 217.517 C 481.559 217.517 476.2 218.959 471.486 221.679 C 470.124 222.466 468.866 223.369 467.655 224.328 L 441.521 198.193 C 445.028 195.014 448.872 192.166 453.055 189.752 C 479.169 174.672 511.221 179 532.493 198.183 L 506.338 224.338 C 500.907 220.017 494.11 217.517 486.976 217.517 Z  M 510.31 254.8 C 508.641 261.028 504.648 266.228 499.066 269.452 C 495.4 271.569 491.234 272.69 487.024 272.69 C 478.414 272.69 470.397 268.062 466.1 260.617 C 462.876 255.034 462.021 248.531 463.69 242.303 C 465.359 236.076 469.352 230.876 474.934 227.652 C 478.6 225.534 482.766 224.414 486.976 224.414 C 495.586 224.414 503.603 229.041 507.9 236.486 C 511.124 242.069 511.979 248.572 510.31 254.8 Z " fill="rgb(255,255,255)"/><path d=" M 476.655 312.345 L 469.045 312.345 C 468.99 312.345 468.945 312.372 468.893 312.376 C 468.479 306.497 466.976 300.624 464.269 295.055 C 464.31 295.031 464.359 295.024 464.4 295 L 470.99 291.193 C 472.641 290.241 473.203 288.131 472.252 286.483 C 471.297 284.831 469.183 284.266 467.541 285.221 L 460.952 289.028 C 460.9 289.059 460.869 289.11 460.821 289.145 C 457.352 284.014 453.031 279.769 448.148 276.466 C 448.179 276.417 448.224 276.379 448.252 276.331 L 452.059 269.741 C 453.01 268.09 452.445 265.983 450.797 265.031 C 449.141 264.079 447.038 264.641 446.086 266.293 L 442.279 272.883 C 442.259 272.921 442.259 272.966 442.238 273.003 C 436.81 270.376 430.921 268.8 424.907 268.359 C 424.907 268.314 424.931 268.279 424.931 268.234 L 424.931 260.621 C 424.931 258.714 423.386 257.172 421.483 257.172 C 419.579 257.172 418.034 258.714 418.034 260.621 L 418.034 268.231 C 418.034 268.29 418.066 268.338 418.069 268.4 C 411.11 268.897 404.152 270.879 397.703 274.603 C 395.228 276.034 392.966 277.683 390.852 279.459 C 393.783 289.734 398.324 299.328 404.169 307.966 C 405.752 304.459 408.386 301.386 411.976 299.314 C 421.076 294.059 432.71 297.179 437.966 306.279 C 443.221 315.379 440.1 327.014 431.003 332.269 C 430.3 332.676 429.579 333.014 428.848 333.321 C 437.338 339.407 446.807 344.207 456.993 347.41 C 464.024 339.514 468.121 329.545 468.886 319.207 C 468.945 319.21 468.993 319.241 469.052 319.241 L 476.655 319.241 C 478.559 319.241 480.103 317.7 480.103 315.793 C 480.103 313.886 478.559 312.345 476.655 312.345 Z " fill="rgb(199,202,199)"/><path d=" M 555.931 266.679 C 555.934 266.621 555.966 266.569 555.966 266.507 L 555.966 258.897 C 555.966 256.99 554.421 255.448 552.517 255.448 C 550.614 255.448 549.069 256.99 549.069 258.897 L 549.069 266.507 C 549.069 266.562 549.097 266.603 549.1 266.659 C 543.221 267.072 537.341 268.579 531.769 271.286 C 531.748 271.245 531.748 271.197 531.724 271.155 L 527.917 264.566 C 526.966 262.91 524.855 262.345 523.207 263.3 C 521.555 264.252 520.993 266.362 521.945 268.01 L 525.752 274.6 C 525.783 274.652 525.828 274.69 525.859 274.738 C 520.728 278.21 516.483 282.531 513.183 287.414 C 513.134 287.383 513.107 287.331 513.055 287.3 L 506.466 283.493 C 504.807 282.538 502.71 283.103 501.755 284.755 C 500.803 286.407 501.369 288.514 503.017 289.466 L 509.607 293.272 C 509.645 293.293 509.686 293.3 509.724 293.321 C 507.1 298.745 505.524 304.631 505.083 310.645 C 505.034 310.645 505 310.621 504.955 310.621 L 497.345 310.621 C 495.441 310.621 493.897 312.162 493.897 314.069 C 493.897 315.976 495.441 317.517 497.345 317.517 L 504.955 317.517 C 505.014 317.517 505.066 317.486 505.124 317.483 C 505.621 324.441 507.603 331.4 511.328 337.848 C 513.293 341.252 515.648 344.276 518.255 346.99 C 528.593 343.59 538.169 338.528 546.71 332.155 C 542.369 330.762 538.503 327.838 536.045 323.579 C 530.79 314.479 533.91 302.845 543.007 297.59 C 552.103 292.334 563.741 295.455 568.997 304.555 C 569.51 305.445 569.921 306.366 570.276 307.297 C 576.169 298.441 580.71 288.61 583.548 278.069 C 575.745 271.352 566.014 267.428 555.931 266.679 Z " fill="rgb(237,113,97)"/></g></g></svg>