<?xml version="1.0" standalone="no"?><!-- Generator: Gravit.io --><svg xmlns="http://www.w3.org/2000/svg" xmlns:xlink="http://www.w3.org/1999/xlink" style="isolation:isolate" viewBox="431 532 200 200" width="200" height="200"><defs><clipPath id="_clipPath_jh9WvRw0kJ5HeiQ9LIhYBbKEu1fspCEF"><rect x="431" y="532" width="200" height="200"/></clipPath></defs><g clip-path="url(#_clipPath_jh9WvRw0kJ5HeiQ9LIhYBbKEu1fspCEF)"><g><g><g><path d=" M 465.509 574.258 C 473.805 574.258 480.552 561.914 480.552 551.272 C 480.552 540.623 473.799 532 465.509 532 C 457.204 532 450.456 540.623 450.456 551.272 C 450.456 561.921 457.205 574.258 465.509 574.258 Z " fill="rgb(0,0,0)"/><path d=" M 501.772 655.627 L 497.521 655.627 L 497.521 650.484 C 499.18 648.921 500.222 646.385 499.978 643.584 L 495.205 588.697 C 495.177 588.325 495.028 588.027 494.962 587.685 C 494.837 587.119 494.761 586.58 494.553 586.068 C 494.393 585.678 494.178 585.373 493.975 585.039 C 493.703 584.582 493.458 584.131 493.119 583.765 C 492.838 583.482 492.517 583.308 492.232 583.08 C 491.92 582.85 491.675 582.537 491.33 582.381 C 490.787 582.128 478.818 576.624 467.817 575.901 L 466.313 579.773 L 466.266 579.773 L 470.261 619.758 L 465.509 630.406 L 460.749 619.758 L 464.746 579.77 L 464.699 579.77 L 463.199 575.898 C 452.175 576.621 440.231 582.126 439.688 582.379 C 439.331 582.536 439.075 582.855 438.761 583.093 C 438.481 583.312 438.171 583.481 437.916 583.764 C 437.548 584.141 437.298 584.605 437.024 585.067 C 436.827 585.387 436.625 585.677 436.458 586.047 C 436.257 586.572 436.168 587.125 436.042 587.7 C 435.981 588.049 435.833 588.332 435.793 588.69 L 431.038 643.569 C 430.669 647.752 433.031 651.52 436.292 651.988 C 436.508 652.018 436.743 652.04 436.97 652.04 C 439.934 652.04 442.532 649.16 442.866 645.267 L 447.186 595.263 C 447.705 595.073 448.267 594.866 448.85 594.652 L 448.85 646.673 L 444.105 722.103 C 443.793 727.148 446.733 731.555 450.654 731.956 C 450.849 731.98 451.046 731.986 451.236 731.986 C 454.919 731.986 458.048 728.353 458.347 723.574 L 462.628 655.404 C 463.521 655.902 464.485 656.185 465.51 656.185 C 466.532 656.185 467.49 655.902 468.383 655.404 L 472.664 723.574 C 472.981 728.353 476.092 731.986 479.775 731.986 C 479.972 731.986 480.156 731.978 480.351 731.956 C 484.296 731.555 487.207 727.148 486.895 722.103 L 482.154 646.673 L 482.154 594.65 C 482.767 594.854 483.307 595.059 483.813 595.26 L 488.15 645.264 C 488.46 648.925 490.778 651.606 493.553 651.919 L 493.553 655.627 L 489.285 655.627 C 487.966 655.627 486.913 657.005 486.913 658.67 L 486.913 704.92 C 486.913 706.593 487.973 707.971 489.285 707.971 L 501.767 707.971 C 503.083 707.971 504.139 706.593 504.139 704.92 L 504.139 658.68 C 504.146 657.004 503.088 655.627 501.772 655.627 Z " fill="rgb(0,0,0)"/><path d=" M 542.056 635.104 L 542.056 644.789 L 568.187 644.789 L 568.187 635.104 L 580.318 635.104 L 555.124 608.287 L 529.929 635.104 L 542.056 635.104 Z " fill="rgb(0,0,0)"/><path d=" M 530.042 598.971 L 514.123 582.834 L 514.123 590.608 L 500.297 590.608 L 500.297 607.35 L 514.123 607.35 L 514.123 615.119 L 530.042 598.971 Z " fill="rgb(0,0,0)"/><path d=" M 620.659 575.973 L 620.659 559.825 L 610.431 559.825 L 610.431 532.252 L 607.869 532.252 L 607.869 559.825 L 597.642 559.825 L 597.642 575.975 L 587.301 575.975 L 587.301 725.45 L 582.964 725.45 L 582.964 652.352 L 527.264 652.352 L 527.264 732 L 582.964 732 L 587.301 732 L 631 732 L 631 575.973 L 620.659 575.973 Z  M 541.829 701.079 L 532.38 701.079 L 532.38 679.991 L 541.829 679.991 L 541.829 701.079 Z  M 553.844 725.45 L 544.392 725.45 L 544.392 704.362 L 553.844 704.362 L 553.844 725.45 Z  M 553.844 701.079 L 544.392 701.079 L 544.392 679.991 L 553.844 679.991 L 553.844 701.079 Z  M 553.844 676.715 L 544.392 676.715 L 544.392 655.627 L 553.844 655.627 L 553.844 676.715 Z  M 565.846 725.45 L 556.394 725.45 L 556.394 704.362 L 565.846 704.362 L 565.846 725.45 Z  M 565.846 676.715 L 556.394 676.715 L 556.394 655.627 L 565.846 655.627 L 565.846 676.715 Z  M 577.863 701.079 L 568.41 701.079 L 568.41 679.991 L 577.863 679.991 L 577.863 701.079 Z  M 600.204 563.099 L 618.104 563.099 L 618.104 575.973 L 600.204 575.973 L 600.204 563.099 Z  M 601.877 701.079 L 592.422 701.079 L 592.422 679.991 L 601.877 679.991 L 601.877 701.079 Z  M 601.877 676.715 L 592.422 676.715 L 592.422 655.627 L 601.877 655.627 L 601.877 676.715 Z  M 601.877 652.35 L 592.422 652.35 L 592.422 631.255 L 601.877 631.255 L 601.877 652.35 Z  M 601.877 627.99 L 592.422 627.99 L 592.422 606.9 L 601.877 606.9 L 601.877 627.99 Z  M 613.881 725.45 L 604.433 725.45 L 604.433 704.362 L 613.881 704.362 L 613.881 725.45 Z  M 613.881 701.079 L 604.433 701.079 L 604.433 679.991 L 613.881 679.991 L 613.881 701.079 Z  M 613.881 627.99 L 604.433 627.99 L 604.433 606.9 L 613.881 606.9 L 613.881 627.99 Z  M 613.881 603.613 L 604.433 603.613 L 604.433 582.527 L 613.881 582.527 L 613.881 603.613 Z  M 625.894 701.079 L 616.43 701.079 L 616.43 679.991 L 625.894 679.991 L 625.894 701.079 Z  M 625.894 676.715 L 616.43 676.715 L 616.43 655.627 L 625.894 655.627 L 625.894 676.715 Z  M 625.894 652.35 L 616.43 652.35 L 616.43 631.255 L 625.894 631.255 L 625.894 652.35 Z  M 625.894 603.613 L 616.43 603.613 L 616.43 582.527 L 620.659 582.527 L 625.894 582.527 L 625.894 603.613 L 625.894 603.613 Z " fill="rgb(0,0,0)"/></g></g></g></g></svg>