<?xml version="1.0" standalone="no"?><!-- Generator: Gravit.io --><svg xmlns="http://www.w3.org/2000/svg" xmlns:xlink="http://www.w3.org/1999/xlink" style="isolation:isolate" viewBox="526 467 100 100" width="200" height="200"><defs><clipPath id="_clipPath_QWK2C1L5lSzvvk1SPI8pWO74MW56yZCJ"><rect x="526" y="467" width="100" height="100"/></clipPath></defs><g clip-path="url(#_clipPath_QWK2C1L5lSzvvk1SPI8pWO74MW56yZCJ)"><g><circle vector-effect="non-scaling-stroke" cx="575.9999999999999" cy="517" r="50" fill="rgb(255,217,59)"/><path d=" M 576 549.137 C 561.378 549.137 548.637 539.234 545.019 525.059 C 544.734 523.944 545.406 522.809 546.522 522.525 C 547.631 522.234 548.769 522.913 549.053 524.028 C 552.203 536.359 563.281 544.972 575.997 544.972 C 588.712 544.972 599.794 536.359 602.941 524.028 C 603.222 522.913 604.356 522.234 605.475 522.525 C 606.591 522.809 607.262 523.944 606.978 525.059 C 603.362 539.234 590.622 549.137 576 549.137 Z " fill="rgb(62,67,71)"/><path d=" M 626 517 C 626 544.625 603.609 567 576 567 C 560.281 567 546.25 559.75 537.078 548.391 C 545.656 555.328 556.578 559.469 568.469 559.469 C 596.078 559.469 618.469 537.094 618.469 509.469 C 618.469 497.578 614.328 486.656 607.391 478.078 C 618.734 487.25 626 501.281 626 517 Z " fill="rgb(244,197,52)"/><ellipse vector-effect="non-scaling-stroke" cx="559.853125" cy="510.0281249999999" rx="7.662500000000023" ry="9.106249999999989" fill="rgb(62,67,71)"/><path d=" M 563.309 508.069 C 562.712 508.537 561.731 508.306 561.103 507.544 C 560.475 506.781 560.444 505.759 561.041 505.291 C 561.634 504.8 562.619 505.031 563.244 505.794 C 563.875 506.578 563.881 507.581 563.309 508.069 Z " fill="rgb(90,95,99)"/><ellipse vector-effect="non-scaling-stroke" cx="592.15625" cy="510.0281249999999" rx="7.662500000000023" ry="9.106249999999989" fill="rgb(62,67,71)"/><path d=" M 595.606 508.069 C 595.009 508.537 594.028 508.306 593.4 507.544 C 592.772 506.781 592.741 505.759 593.337 505.291 C 593.931 504.8 594.912 505.031 595.541 505.794 C 596.172 506.578 596.178 507.581 595.606 508.069 Z " fill="rgb(90,95,99)"/></g></g></svg>