<?xml version="1.0" standalone="no"?><!-- Generator: Gravit.io --><svg xmlns="http://www.w3.org/2000/svg" xmlns:xlink="http://www.w3.org/1999/xlink" style="isolation:isolate" viewBox="402 494 200 200" width="200" height="200"><defs><clipPath id="_clipPath_6X8eDiR6JVGREYVP4dU92v1WRd5kgDhM"><rect x="402" y="494" width="200" height="200"/></clipPath></defs><g clip-path="url(#_clipPath_6X8eDiR6JVGREYVP4dU92v1WRd5kgDhM)"><g><circle vector-effect="non-scaling-stroke" cx="502" cy="594" r="100.00000000000003" fill="rgb(33,208,195)"/><path d=" M 472.791 650.845 C 472.791 650.845 465.243 669.173 464.929 686.896 C 476.393 691.476 488.901 694 502 694 C 513.17 694 523.911 692.162 533.942 688.782 C 533.804 687.978 533.672 687.264 533.546 686.668 C 531.188 675.465 530.008 668.98 530.008 668.98 C 530.008 668.98 531.58 658.562 530.893 653.551 C 530.205 648.54 530.303 636.158 532.465 630.458 C 534.627 624.759 537.77 608.84 538.95 596.655 C 540.129 584.47 543.077 576.214 546.419 571.301 C 549.761 566.389 525.129 558.245 521.985 559.032 C 518.84 559.817 512.407 556.701 512.407 556.701 L 508.899 553.982 L 505.132 541.834 C 505.132 541.834 506.914 539.535 508.374 536.155 C 508.374 536.155 510.37 535.872 511.105 534.743 C 511.843 533.612 513.612 526.684 513.317 524.425 C 513.169 523.288 511.841 523.42 510.556 523.83 C 510.591 517.125 509.173 506.03 499.934 502.414 C 486.372 497.108 479.246 506.902 479.246 506.902 C 479.246 506.902 475.266 512.455 475.954 519.138 C 476.641 525.82 476.838 527.784 476.838 527.784 C 476.838 527.784 473.944 526.088 473.698 529.036 C 473.453 531.985 477.218 537.993 477.513 538.484 C 477.808 538.975 479.502 538.164 479.502 538.164 C 479.502 538.164 480.904 542.389 481.689 543.372 C 482.476 544.354 482.893 544.552 482.893 544.552 C 482.893 544.552 485.891 555.089 485.891 556.171 C 485.891 557.252 474.688 564.523 472.329 565.113 C 471.172 565.403 466.721 565.408 461.445 566.733 C 456.167 568.059 459.102 573.269 459.102 573.269 C 459.102 573.269 461.043 586.879 463.303 592.087 C 465.563 597.295 471.459 611.15 475.979 616.752 C 480.499 622.354 478.393 633.134 478.393 633.134 L 472.791 650.845 L 472.791 650.845 Z " fill="rgb(255,91,98)"/><g><path d=" M 498.583 693.942 L 498.62 693.943 C 494.722 690.451 495.365 679.923 496.274 677.688 C 493.907 682.315 494.19 688.511 496.111 692.438 C 496.326 692.878 495.911 693.412 495.462 693.788 C 496.498 693.856 497.538 693.907 498.583 693.942 Z " fill="rgb(237,76,84)"/><path d=" M 494.447 579.743 C 494.447 579.743 490.71 577.796 489.531 578.607 C 488.354 579.419 489.142 580.609 490.714 581.177 C 492.288 581.746 492.904 582.197 494.527 583.146 C 495.495 583.713 497.206 583.567 498.172 582.998 C 499.79 582.044 499.866 581.71 501.438 581.136 C 503.009 580.562 503.791 579.371 502.612 578.563 C 501.43 577.755 497.871 579.57 497.871 579.57 C 496.892 579.978 495.427 580.092 494.447 579.743 Z  M 489.96 557.123 C 489.073 557.792 489.853 558.705 491.125 559.002 C 492.396 559.298 492.917 559.591 494.263 560.176 C 495.066 560.525 496.046 560.764 496.738 560.236 C 497.896 559.351 498.785 559.237 499.944 558.65 C 501.145 558.042 501.124 557.47 500.707 557.097 C 500.279 556.714 499.412 556.552 497.415 557.893 C 494.997 559.548 491.12 556.249 489.96 557.123 L 489.96 557.123 Z  M 493.998 562.435 C 493.998 562.435 490.604 560.712 489.548 561.454 C 488.491 562.197 489.215 563.265 490.641 563.764 C 492.069 564.263 492.63 564.666 494.105 565.509 C 494.984 566.01 496.529 565.864 497.396 565.342 C 498.85 564.465 498.913 564.163 500.328 563.63 C 501.741 563.098 502.438 562.014 501.364 561.295 C 500.289 560.576 497.092 562.248 497.092 562.248 C 496.211 562.624 494.888 562.74 493.998 562.435 L 493.998 562.435 Z  M 494.249 567.743 C 494.249 567.743 490.514 565.798 489.335 566.61 C 488.157 567.421 488.945 568.609 490.519 569.177 C 492.091 569.747 492.708 570.199 494.331 571.148 C 495.297 571.714 497.011 571.569 497.976 570.999 C 499.595 570.045 499.67 569.712 501.241 569.138 C 502.812 568.564 503.597 567.371 502.416 566.565 C 501.235 565.757 497.676 567.571 497.676 567.571 C 496.695 567.98 495.23 568.093 494.249 567.743 L 494.249 567.743 Z  M 494.545 574.03 C 494.545 574.03 490.807 572.084 489.63 572.895 C 488.452 573.706 489.24 574.894 490.813 575.464 C 492.386 576.032 493.002 576.484 494.625 577.434 C 495.593 577.999 497.305 577.854 498.27 577.284 C 499.89 576.331 499.965 575.996 501.535 575.423 C 503.107 574.848 503.89 573.657 502.71 572.851 C 501.528 572.043 497.97 573.857 497.97 573.857 C 496.99 574.264 495.525 574.378 494.545 574.03 Z  M 502.162 639.606 C 502.162 639.606 498.53 637.48 497.311 638.234 C 496.093 638.987 496.818 640.212 498.36 640.857 C 502.922 642.762 503.319 643.54 503.843 643.474 C 504.329 643.413 504.926 642.624 509.071 641.338 C 510.67 640.841 511.514 639.688 510.376 638.825 C 509.239 637.961 505.592 639.601 505.592 639.601 C 504.593 639.96 503.123 640.002 502.162 639.606 L 502.162 639.606 Z  M 502.211 634.13 C 502.211 634.13 498.579 632.005 497.362 632.758 C 496.142 633.511 496.868 634.738 498.41 635.381 C 499.95 636.027 500.543 636.507 502.114 637.534 C 503.051 638.146 504.77 638.084 505.763 637.562 C 507.43 636.688 507.521 636.357 509.12 635.862 C 510.72 635.364 511.564 634.212 510.426 633.349 C 509.289 632.486 505.641 634.125 505.641 634.125 C 504.641 634.484 503.173 634.527 502.211 634.13 L 502.211 634.13 Z  M 502.368 628.071 C 502.368 628.071 498.343 626.771 497.325 627.765 C 496.307 628.759 497.293 629.8 498.943 630.101 C 500.593 630.402 501.279 630.745 503.045 631.411 C 504.098 631.809 505.76 631.384 506.611 630.662 C 508.038 629.454 508.053 629.114 509.5 628.289 C 510.948 627.463 511.51 626.159 510.204 625.559 C 508.898 624.959 505.711 627.336 505.711 627.336 C 504.819 627.897 503.395 628.253 502.368 628.071 Z  M 500.834 621.738 C 500.834 621.738 497.097 619.792 495.919 620.602 C 494.741 621.415 495.529 622.604 497.102 623.172 C 498.676 623.741 499.292 624.191 500.914 625.141 C 501.882 625.708 503.593 625.562 504.559 624.993 C 506.179 624.039 506.253 623.705 507.825 623.13 C 509.396 622.557 510.179 621.366 508.999 620.559 C 507.817 619.751 504.259 621.566 504.259 621.566 C 503.28 621.972 501.814 622.087 500.834 621.738 L 500.834 621.738 Z  M 499.065 615.881 C 499.065 615.881 495.329 613.936 494.151 614.746 C 492.972 615.557 493.76 616.746 495.334 617.315 C 496.907 617.885 497.523 618.336 499.146 619.285 C 500.112 619.851 501.826 619.706 502.79 619.136 C 504.41 618.182 504.484 617.848 506.056 617.274 C 507.627 616.7 508.411 615.509 507.23 614.702 C 506.05 613.893 502.491 615.708 502.491 615.708 C 501.511 616.116 500.045 616.23 499.065 615.881 L 499.065 615.881 Z  M 497.738 609.596 C 497.738 609.596 494.002 607.651 492.823 608.461 C 491.645 609.273 492.433 610.462 494.007 611.031 C 495.58 611.6 496.196 612.051 497.819 613.001 C 498.786 613.566 500.498 613.421 501.464 612.851 C 503.083 611.898 503.157 611.564 504.729 610.99 C 506.3 610.416 507.084 609.224 505.904 608.417 C 504.723 607.609 501.164 609.424 501.164 609.424 C 500.184 609.832 498.72 609.944 497.738 609.596 L 497.738 609.596 Z  M 496.805 603.311 C 496.805 603.311 493.069 601.365 491.89 602.175 C 490.713 602.988 491.5 604.177 493.073 604.745 C 494.646 605.314 495.263 605.766 496.885 606.714 C 497.852 607.28 499.566 607.136 500.531 606.566 C 502.151 605.613 502.225 605.279 503.796 604.705 C 505.368 604.13 506.15 602.938 504.971 602.132 C 503.789 601.323 500.231 603.139 500.231 603.139 C 499.251 603.546 497.786 603.66 496.805 603.311 L 496.805 603.311 Z  M 495.921 597.217 C 495.921 597.217 492.184 595.272 491.005 596.082 C 489.828 596.894 490.616 598.083 492.189 598.651 C 493.763 599.22 494.379 599.671 496.002 600.62 C 496.968 601.187 498.682 601.041 499.646 600.472 C 501.266 599.518 501.34 599.184 502.911 598.611 C 504.483 598.037 505.267 596.845 504.086 596.038 C 502.905 595.23 499.347 597.045 499.347 597.045 C 498.366 597.452 496.901 597.566 495.921 597.217 L 495.921 597.217 Z  M 495.626 591.407 C 495.626 591.407 491.889 589.462 490.711 590.273 C 489.533 591.084 490.322 592.273 491.895 592.842 C 493.467 593.41 494.083 593.862 495.706 594.813 C 496.675 595.377 498.386 595.232 499.351 594.663 C 500.971 593.709 501.046 593.374 502.616 592.801 C 504.188 592.227 504.971 591.036 503.791 590.229 C 502.611 589.42 499.051 591.235 499.051 591.235 C 498.072 591.643 496.607 591.756 495.626 591.407 Z  M 494.693 585.6 C 494.693 585.6 490.955 583.654 489.779 584.464 C 488.601 585.276 489.388 586.465 490.961 587.033 C 492.534 587.602 493.151 588.053 494.773 589.003 C 495.741 589.569 497.454 589.423 498.418 588.855 C 500.038 587.901 500.112 587.567 501.683 586.993 C 503.254 586.419 504.038 585.227 502.858 584.421 C 501.678 583.613 498.119 585.428 498.119 585.428 C 497.138 585.834 495.674 585.948 494.693 585.6 L 494.693 585.6 Z " fill="rgb(237,76,84)"/><path d=" M 473.58 651.568 L 483.898 657.562 L 496.181 660.51 C 496.181 660.51 496.181 659.036 495.395 658.201 C 494.609 657.366 485.519 653.386 485.519 653.386 L 482.719 651.421 L 489.941 654.075 L 502.275 655.402 C 502.275 655.402 503.158 654.419 502.52 653.386 C 501.881 652.355 493.037 650.734 493.037 650.734 L 484.782 647.539 L 483.849 646.36 L 492.152 649.162 C 492.152 649.162 499.916 650.192 500.653 649.897 C 501.389 649.602 500.75 647.884 500.75 647.884 L 491.659 644.543 L 485.001 642.013 L 485.001 641.054 L 488.81 642.406 L 497.434 643.584 C 497.434 643.584 498.858 643.093 497.826 641.717 C 496.794 640.341 488.564 638.23 488.564 638.23 C 488.564 638.23 487.532 637.296 482.128 634.495 C 480.975 633.897 479.694 633.457 478.393 633.133 L 473.58 651.568 L 473.58 651.568 Z " fill="rgb(237,76,84)"/></g><g><path d=" M 461.154 566.807 C 455.747 568.207 449.531 571.007 445.107 576.905 C 445.107 576.905 429.385 586.141 422.505 598.327 C 415.626 610.513 411.302 614.443 415.823 620.339 C 420.343 626.236 457.586 637.832 459.945 639.208 C 462 640.406 465.304 643.862 466.12 644.731 L 473.579 651.569 L 478.393 633.134 C 473.595 631.94 468.517 632.335 468.517 632.335 C 468.517 632.335 467.24 632.532 462.425 628.699 C 457.609 624.867 433.534 611.306 433.534 611.306 C 433.534 611.306 438.35 609.045 443.066 606.196 C 447.783 603.347 463.302 592.089 463.302 592.089 C 463.302 592.089 466.357 586.445 469.305 578.682 C 472.255 570.917 461.154 566.807 461.154 566.807 L 461.154 566.807 Z " fill="rgb(255,91,98)"/><path d=" M 540.265 587.639 C 541.75 580.259 543.979 574.89 546.419 571.302 C 549.761 566.39 568.529 551.059 571.28 541.429 C 574.033 531.8 578.847 524.92 580.026 521.48 C 581.206 518.041 581.402 509.197 573.541 509.001 C 565.679 508.804 521.754 525.214 521.754 525.214 L 515.563 526.787 C 515.563 526.787 512.103 527.24 510.575 528.712 L 510.205 529.145 L 504.354 535.775 L 496.589 539.994 C 496.589 539.994 492.266 540.295 492.463 541.769 C 492.659 543.244 497.343 542.512 497.343 542.512 L 503.985 540.27 L 497.876 543.327 C 497.876 543.327 491.038 544.373 490.842 544.913 C 490.646 545.452 490.75 547.127 491.782 547.029 C 492.814 546.93 501.307 545.896 501.307 545.896 L 506.564 544.422 L 500.275 547.615 C 500.275 547.615 490.104 548.746 489.859 549.827 C 489.613 550.908 489.859 551.939 490.547 552.185 C 491.235 552.431 501.454 551.644 501.454 551.644 L 509.317 548.5 L 502.68 552.464 L 493.446 554.151 C 493.446 554.151 493.034 556.398 494.606 556.692 C 496.179 556.986 504.464 555.937 504.464 555.937 L 514.209 551.764 C 514.209 551.764 520.709 544.529 521.249 541.728 C 521.789 538.927 522.31 538.351 523.636 537.172 C 524.963 535.993 525.233 536.607 525.233 536.607 L 551.028 530.662 C 551.028 530.662 548.03 533.905 546.605 536.754 C 545.18 539.604 531.177 544.025 528.425 550.314 C 523.62 561.297 520.445 559.652 512.407 556.702 C 512.407 556.702 505.81 562.318 505.755 564.535 C 505.468 575.827 511.197 605.961 511.738 606.286 C 512.386 606.675 529.759 613.116 540.265 587.639 L 540.265 587.639 Z " fill="rgb(255,91,98)"/></g><path d=" M 513.121 527.355 C 512.198 527.656 511.216 528.093 510.575 528.711 L 510.205 529.144 L 504.354 535.775 L 497.22 539.65 C 496.607 539.983 493.007 540.084 492.188 540.853 C 489.863 543.038 496.864 542.673 497.586 542.43 L 503.984 540.27 L 497.875 543.327 C 497.875 543.327 490.808 544.627 490.612 545.167 C 490.416 545.707 490.361 547.069 491.393 546.971 C 492.425 546.873 499.225 546.709 499.225 546.709 L 505.984 544.585 L 505.13 541.835 C 505.13 541.835 506.913 539.536 508.373 536.156 C 508.373 536.156 510.368 535.873 511.104 534.744 C 511.626 533.944 512.663 530.251 513.121 527.355 L 513.121 527.355 Z  M 506.02 544.699 L 499.311 548.072 C 499.311 548.072 490.104 548.746 489.859 549.827 C 489.613 550.908 490.164 551.432 490.852 551.678 C 491.54 551.923 500.668 551.518 500.668 551.518 L 507.432 549.254 L 506.02 544.699 L 506.02 544.699 Z  M 507.53 549.568 L 502.68 552.464 L 494.036 554.043 C 493.66 554.112 493.393 554.435 493.397 554.818 C 493.404 555.505 493.595 556.504 494.606 556.693 C 496.178 556.986 504.087 555.521 504.087 555.521 L 508.945 554.018 L 508.898 553.982 L 507.53 549.568 Z " fill="rgb(237,76,84)"/><path d=" M 485.259 550.974 C 490.343 550.974 494.463 555.095 494.463 560.179 C 494.463 565.263 490.342 569.384 485.259 569.384 C 480.175 569.384 476.054 565.263 476.054 560.179 C 476.054 555.096 480.175 550.974 485.259 550.974 Z  M 485.259 542.826 C 490.047 542.826 494.383 544.769 497.524 547.909 L 497.529 547.914 C 500.668 551.055 502.612 555.393 502.612 560.18 C 502.612 564.968 500.669 569.304 497.529 572.445 L 497.524 572.45 C 494.384 575.589 490.047 577.533 485.259 577.533 C 480.472 577.533 476.134 575.59 472.993 572.45 L 472.988 572.445 C 469.849 569.305 467.905 564.968 467.905 560.18 C 467.905 555.393 469.848 551.055 472.988 547.914 L 472.993 547.909 C 476.134 544.769 480.472 542.826 485.259 542.826 Z  M 495.641 549.797 C 492.985 547.144 489.314 545.502 485.259 545.502 C 481.204 545.502 477.533 547.144 474.877 549.797 C 472.224 552.453 470.582 556.124 470.582 560.179 C 470.582 564.235 472.224 567.905 474.877 570.561 C 477.533 573.214 481.204 574.856 485.259 574.856 C 489.315 574.856 492.985 573.214 495.641 570.561 C 498.294 567.905 499.936 564.234 499.936 560.179 C 499.936 556.124 498.294 552.454 495.641 549.797 Z " fill="rgb(254,254,254)"/><path d=" M 461.9 584.614 C 461.639 586.732 462.298 592.024 461.386 593.473 C 463.721 596.901 466.443 599.385 468.742 604.164 C 466.27 598.746 463.826 593.17 461.9 584.614 Z " fill="rgb(237,76,84)"/><path d=" M 510.204 646.177 C 513.704 646.177 516.541 649.014 516.541 652.513 C 516.541 656.012 513.704 658.849 510.204 658.849 C 506.705 658.849 503.868 656.012 503.868 652.513 C 503.868 649.014 506.705 646.177 510.204 646.177 Z  M 510.204 640.568 C 513.5 640.568 516.486 641.905 518.647 644.066 C 520.895 646.314 522.149 649.333 522.149 652.513 C 522.149 655.809 520.812 658.794 518.65 660.956 C 516.402 663.204 513.384 664.458 510.204 664.458 C 506.909 664.458 503.923 663.12 501.761 660.959 C 499.513 658.711 498.259 655.693 498.259 652.513 C 498.259 649.218 499.596 646.232 501.757 644.07 C 504.006 641.822 507.025 640.568 510.204 640.568 Z  M 517.351 645.366 C 515.523 643.54 512.996 642.409 510.205 642.409 C 507.413 642.409 504.887 643.54 503.059 645.366 C 501.232 647.195 500.102 649.721 500.102 652.513 C 500.102 655.304 501.232 657.83 503.059 659.659 C 504.887 661.485 507.413 662.616 510.205 662.616 C 512.996 662.616 515.523 661.485 517.351 659.659 C 519.177 657.83 520.308 655.304 520.308 652.513 C 520.307 649.721 519.177 647.195 517.351 645.366 Z " fill="rgb(254,254,254)"/><path d=" M 551.028 530.662 C 552.401 530.733 558.442 529.416 562.157 526.837 L 565.812 524.299 C 561.007 529.355 556.821 531.437 549.579 532.356 C 550.398 531.343 551.028 530.662 551.028 530.662 Z " fill="rgb(237,76,84)"/></g></g></svg>