<?xml version="1.0" standalone="no"?><!-- Generator: Gravit.io --><svg xmlns="http://www.w3.org/2000/svg" xmlns:xlink="http://www.w3.org/1999/xlink" style="isolation:isolate" viewBox="421 610 200 200" width="200" height="200"><defs><clipPath id="_clipPath_eCoKtjl3lkHl4pkzueRxk4wdT6Vp3tja"><rect x="421" y="610" width="200" height="200"/></clipPath></defs><g clip-path="url(#_clipPath_eCoKtjl3lkHl4pkzueRxk4wdT6Vp3tja)"><g><ellipse vector-effect="non-scaling-stroke" cx="521" cy="630.3534397929932" rx="20.689588287968917" ry="20.33734643852904" fill="rgb(179,235,255)"/><path d=" M 456.318 683.719 C 464.335 691.51 464.409 704.213 456.484 712.093 C 456.429 712.148 456.374 712.202 456.318 712.256 C 448.214 720.137 435.166 720.137 427.062 712.256 C 419.045 704.465 418.971 691.762 426.896 683.882 C 426.951 683.827 427.006 683.773 427.062 683.719 C 435.166 675.837 448.214 675.837 456.318 683.719 L 456.318 683.719 Z " fill="rgb(247,124,106)"/><g><path d=" M 538.047 618.84 L 509.287 647.111 C 518.697 653.474 531.573 651.134 538.047 641.884 C 542.904 634.944 542.904 625.779 538.047 618.84 Z " fill="rgb(140,226,255)"/><path d=" M 533.193 614.025 L 537.913 618.664 C 531.363 609.472 518.473 607.24 509.122 613.679 C 499.771 620.117 497.501 632.788 504.05 641.979 C 504.147 642.115 504.245 642.249 504.345 642.382 L 533.193 614.025 Z " fill="rgb(140,226,255)"/></g><path d=" M 541.69 664.249 L 500.31 664.249 C 492.693 664.249 486.517 670.319 486.517 677.807 C 486.517 685.295 492.693 691.365 500.31 691.365 L 541.69 691.365 C 549.307 691.365 555.483 685.295 555.483 677.807 C 555.483 670.319 549.307 664.249 541.69 664.249 Z " fill="rgb(237,227,227)"/><path d=" M 541.69 664.249 L 521 664.249 L 521 691.365 L 541.69 691.365 C 549.307 691.365 555.483 685.295 555.483 677.807 C 555.483 670.319 549.307 664.249 541.69 664.249 Z " fill="rgb(39,174,96)"/><path d=" M 616.96 613.987 C 611.573 608.692 602.84 608.692 597.454 613.987 L 568.194 642.749 C 562.831 648.067 562.87 656.651 568.28 661.923 C 573.657 667.161 582.324 667.161 587.7 661.923 L 616.96 633.161 C 622.346 627.866 622.346 619.282 616.96 613.987 L 616.96 613.987 Z " fill="rgb(237,227,227)"/><g><path d=" M 597.454 613.987 L 582.824 628.368 L 602.33 647.542 L 616.96 633.161 C 622.347 627.866 622.347 619.282 616.96 613.987 C 611.573 608.692 602.84 608.692 597.454 613.987 Z " fill="rgb(253,97,75)"/><path d=" M 438.565 678.119 L 445.011 678.119 C 438.46 677.05 431.786 679.133 427.062 683.719 C 419.045 691.528 418.986 704.247 426.93 712.127 C 430.067 715.239 434.153 717.257 438.564 717.874 L 438.564 678.119 L 438.565 678.119 Z " fill="rgb(253,97,75)"/><path d=" M 456.318 683.719 C 453.355 680.829 449.57 678.891 445.461 678.161 L 445.461 717.814 C 449.569 717.084 453.355 715.146 456.318 712.255 C 464.335 704.465 464.409 691.761 456.483 683.881 C 456.429 683.827 456.373 683.773 456.318 683.719 Z " fill="rgb(253,97,75)"/></g><path d=" M 473.806 642.748 L 444.546 613.987 C 439.16 608.692 430.427 608.692 425.04 613.987 C 419.653 619.282 419.653 627.866 425.04 633.161 L 454.299 661.923 C 459.686 667.217 468.419 667.217 473.806 661.923 C 479.192 656.628 479.192 648.043 473.806 642.748 L 473.806 642.748 Z " fill="rgb(237,227,227)"/><path d=" M 425.04 633.161 L 439.67 647.542 L 459.176 628.368 L 444.546 613.987 C 439.16 608.692 430.427 608.692 425.04 613.987 C 419.653 619.282 419.653 627.866 425.04 633.161 Z " fill="rgb(254,205,13)"/><path d=" M 611.901 692.778 C 607.274 690.049 601.298 691.2 598.061 695.443 L 578.716 720.797 C 574.873 725.834 569.188 729.207 562.863 730.201 L 496.862 738.819 L 542.287 720.89 C 545.336 719.791 547.328 716.898 547.233 713.707 C 547.031 709.722 543.58 706.653 539.525 706.852 C 538.918 706.882 538.316 706.986 537.735 707.162 L 477.367 725.41 C 469.979 727.485 463.732 732.36 460.001 738.962 L 448.587 759.157 L 431.346 810 L 483.07 810 L 485.663 789.6 C 486.185 785.496 489.059 782.051 493.051 780.743 L 580.748 752.008 C 586.671 750.067 591.627 745.992 594.618 740.603 L 615.469 707.046 C 618.5 702.168 616.934 695.799 611.972 692.82 C 611.948 692.806 611.924 692.792 611.901 692.778 L 611.901 692.778 Z " fill="rgb(239,203,154)"/></g></g></svg>