<?xml version="1.0" standalone="no"?><!-- Generator: Gravit.io --><svg xmlns="http://www.w3.org/2000/svg" xmlns:xlink="http://www.w3.org/1999/xlink" style="isolation:isolate" viewBox="408 596 200 200" width="200" height="200"><defs><clipPath id="_clipPath_47PMhitv7EEP27SXsXwB0YFfhHaP1rDf"><rect x="408" y="596" width="200" height="200"/></clipPath></defs><g clip-path="url(#_clipPath_47PMhitv7EEP27SXsXwB0YFfhHaP1rDf)"><g><g><g><path d=" M 608 696 C 608 751.225 563.225 796 508 796 C 452.775 796 408 751.225 408 696 C 408 640.775 452.775 596 508 596 C 563.225 596 608 640.775 608 696 Z " fill="rgb(255,204,77)"/><g><path d=" M 491.35 687.65 C 491.35 698.393 485.148 707.084 477.482 707.084 C 469.816 707.084 463.566 698.393 463.566 687.65 C 463.566 676.908 469.768 668.217 477.434 668.217 C 485.1 668.217 491.35 676.908 491.35 687.65 Z " fill="rgb(102,69,0)"/><path d=" M 552.434 687.65 C 552.434 698.393 546.232 707.084 538.566 707.084 C 530.9 707.084 524.65 698.393 524.65 687.65 C 524.65 676.908 530.852 668.217 538.518 668.217 C 546.184 668.217 552.434 676.908 552.434 687.65 Z " fill="rgb(102,69,0)"/><path d=" M 538.461 759.222 C 538.413 758.978 532.114 743.207 507.993 743.207 C 483.872 743.207 477.573 758.978 477.524 759.222 C 477.231 760.394 477.768 761.615 478.793 762.25 C 479.819 762.884 481.186 762.738 482.114 761.908 C 482.163 761.859 487.729 757.123 507.993 757.123 C 527.915 757.123 533.627 761.712 533.872 761.908 C 534.409 762.396 535.092 762.689 535.776 762.689 C 536.264 762.689 536.704 762.591 537.143 762.347 C 538.217 761.712 538.803 760.443 538.461 759.222 Z " fill="rgb(102,69,0)"/><path d=" M 569.133 662.65 C 538.273 662.65 525.773 638.383 525.285 637.357 C 523.918 634.623 525.041 631.254 527.775 629.887 C 530.51 628.52 533.83 629.643 535.197 632.377 C 535.588 633.158 545.305 651.566 569.133 651.566 C 572.209 651.566 574.699 654.057 574.699 657.133 C 574.65 660.16 572.16 662.65 569.133 662.65 Z " fill="rgb(102,69,0)"/><path d=" M 446.867 662.646 C 443.791 662.646 441.301 660.155 441.301 657.079 C 441.301 654.003 443.791 651.513 446.867 651.513 C 475.09 651.513 480.168 634.179 480.363 633.446 C 481.145 630.517 484.221 628.759 487.15 629.491 C 490.08 630.272 491.887 633.251 491.154 636.181 C 490.91 637.304 484.123 662.646 446.867 662.646 Z " fill="rgb(102,69,0)"/></g></g><g><g><path d=" M 511.369 736.234 L 489.934 752.299 C 493.547 750.98 498.332 749.809 504.436 749.418 L 515.275 741.312 L 511.369 736.234 Z " fill="rgb(204,214,221)"/><path d=" M 585.393 680.668 L 552.287 705.521 L 556.145 710.648 L 559.465 708.158 C 562.785 705.668 564.641 708.695 567.131 712.016 C 569.621 715.336 571.77 717.631 568.449 720.121 L 526.311 751.762 C 529.191 752.738 531.389 753.812 532.951 754.74 L 602.092 702.885 C 608.244 698.295 609.465 689.604 604.875 683.451 C 600.236 677.299 591.545 676.078 585.393 680.668 Z  M 567.229 708.451 L 560.344 699.613 L 564.689 696.391 L 571.33 705.229 L 567.229 708.451 Z  M 579.094 699.467 L 572.209 690.58 L 576.555 687.357 L 583.195 696.195 L 579.094 699.467 Z " fill="rgb(204,214,221)"/><path d=" M 527.629 732.035 L 523.723 726.957 L 515.715 732.963 L 519.523 738.09 L 527.629 732.035 Z " fill="rgb(204,214,221)"/><path d=" M 539.689 722.953 L 535.832 717.924 L 540.129 714.701 L 543.938 719.779 L 551.896 713.822 L 547.941 708.744 L 528.02 723.734 L 531.877 728.812 L 539.689 722.953 Z " fill="rgb(204,214,221)"/></g><path d=" M 567.131 712.016 C 564.641 708.695 562.736 705.668 559.465 708.158 L 556.145 710.648 L 558.928 714.311 L 554.826 717.631 L 551.896 713.871 L 543.986 719.828 L 546.818 723.588 L 542.717 726.908 L 539.738 723.051 L 531.926 728.91 L 534.709 732.572 L 530.607 735.893 L 527.678 732.084 L 519.621 738.139 L 522.355 741.801 L 518.254 745.121 L 515.324 741.361 L 504.436 749.418 C 505.754 749.32 507.17 749.271 508.635 749.271 C 516.203 749.223 521.965 750.346 526.262 751.762 L 568.4 720.121 C 571.77 717.631 569.621 715.336 567.131 712.016 Z " fill="rgb(218,47,71)"/><g><path d=" M 518.205 745.023 L 522.307 741.752 L 519.523 738.09 L 515.715 732.963 L 515.666 732.914 L 511.32 736.137 L 511.369 736.234 L 515.275 741.264 L 518.205 745.023 Z " fill="rgb(103,117,127)"/><path d=" M 530.559 735.795 L 534.66 732.523 L 531.877 728.812 L 528.02 723.734 L 528.02 723.686 L 523.674 726.908 L 523.723 726.957 L 527.629 732.035 L 530.559 735.795 Z " fill="rgb(103,117,127)"/><path d=" M 535.832 717.924 L 539.689 722.953 L 542.668 726.811 L 546.77 723.49 L 543.938 719.779 L 540.129 714.701 L 535.832 717.924 Z " fill="rgb(103,117,127)"/><path d=" M 554.777 717.582 L 558.879 714.262 L 556.145 710.6 L 552.287 705.521 L 552.238 705.473 L 547.941 708.695 L 547.941 708.744 L 551.896 713.822 L 554.777 717.582 Z " fill="rgb(103,117,127)"/><path d=" M 560.344 699.613 L 567.229 708.451 L 571.33 705.18 L 564.689 696.342 L 560.344 699.613 Z " fill="rgb(103,117,127)"/><path d=" M 572.258 690.629 L 579.094 699.467 L 583.244 696.195 L 576.555 687.357 L 572.258 690.629 Z " fill="rgb(103,117,127)"/></g></g></g></g></g></svg>