<?xml version="1.0" standalone="no"?><!-- Generator: Gravit.io --><svg xmlns="http://www.w3.org/2000/svg" xmlns:xlink="http://www.w3.org/1999/xlink" style="isolation:isolate" viewBox="356 414 200 200" width="200" height="200"><defs><clipPath id="_clipPath_4lNep8mkCsVsFro2VH12CpWv49qUHLQd"><rect x="356" y="414" width="200" height="200"/></clipPath></defs><g clip-path="url(#_clipPath_4lNep8mkCsVsFro2VH12CpWv49qUHLQd)"><g><path d=" M 410.237 597.333 L 410.237 610.667 L 505.153 610.667 L 505.153 597.333 L 410.237 597.333 Z " fill="rgb(189,219,255)"/><path d=" M 432.508 568.767 L 423.797 597.333 L 491.593 597.333 L 482.882 568.767 C 468.099 580.19 447.29 580.19 432.508 568.767 L 432.508 568.767 Z " fill="rgb(189,219,255)"/><path d=" M 417.017 537.333 C 417.017 559.425 435.229 577.333 457.695 577.333 C 480.161 577.333 498.373 559.425 498.373 537.333 L 498.373 524 L 417.017 524 L 417.017 537.333 Z " fill="rgb(189,219,255)"/><path d=" M 406.847 510.667 L 406.847 524 L 508.542 524 L 508.542 510.667 L 406.847 510.667 Z " fill="rgb(189,219,255)"/><path d=" M 518.712 430.667 L 396.678 430.667 L 396.678 490.667 C 396.69 494.343 399.719 497.322 403.458 497.333 L 417.017 497.333 L 417.017 484 C 417.017 461.909 435.229 444 457.695 444 C 480.161 444 498.373 461.909 498.373 484 L 498.373 497.333 L 511.932 497.333 C 515.671 497.322 518.7 494.343 518.712 490.667 L 518.712 430.667 Z " fill="rgb(189,219,255)"/><path d=" M 525.492 430.667 L 525.492 417.333 L 389.898 417.333 L 389.898 430.667 L 525.492 430.667 Z " fill="rgb(189,219,255)"/><path d=" M 552.61 530.667 C 552.61 534.348 549.575 537.333 545.831 537.333 C 542.086 537.333 539.051 534.348 539.051 530.667 C 539.051 526.985 542.086 524 545.831 524 C 549.575 524 552.61 526.985 552.61 530.667 Z " fill="rgb(189,219,255)"/><path d=" M 383.119 504 C 383.119 507.682 380.083 510.667 376.339 510.667 C 372.595 510.667 369.559 507.682 369.559 504 C 369.559 500.318 372.595 497.333 376.339 497.333 C 380.083 497.333 383.119 500.318 383.119 504 Z " fill="rgb(189,219,255)"/><g><path d=" M 511.932 500.667 C 517.548 500.667 522.102 496.189 522.102 490.667 L 522.102 460.667 L 532.271 460.667 C 534.143 460.667 535.661 459.174 535.661 457.333 L 535.661 444 C 535.661 442.159 534.143 440.667 532.271 440.667 L 522.102 440.667 L 522.102 434 L 525.492 434 C 527.364 434 528.881 432.507 528.881 430.667 L 528.881 417.333 C 528.881 415.493 527.364 414 525.492 414 L 389.898 414 C 388.026 414 386.508 415.493 386.508 417.333 L 386.508 430.667 C 386.508 432.507 388.026 434 389.898 434 L 393.288 434 L 393.288 490.667 C 393.288 496.189 397.842 500.667 403.458 500.667 L 413.627 500.667 L 413.627 507.333 L 406.847 507.333 C 404.975 507.333 403.458 508.826 403.458 510.667 L 403.458 524 C 403.458 525.841 404.975 527.333 406.847 527.333 L 413.627 527.333 L 413.627 537.333 C 413.617 549.794 419.093 561.648 428.641 569.84 L 421.274 594 L 410.237 594 C 408.365 594 406.847 595.493 406.847 597.333 L 406.847 610.667 C 406.847 612.507 408.365 614 410.237 614 L 505.153 614 C 507.025 614 508.542 612.507 508.542 610.667 L 508.542 597.333 C 508.542 595.493 507.025 594 505.153 594 L 494.116 594 L 486.748 569.84 C 496.297 561.648 501.773 549.794 501.763 537.333 L 501.763 527.333 L 508.542 527.333 C 510.414 527.333 511.932 525.841 511.932 524 L 511.932 510.667 C 511.932 508.826 510.414 507.333 508.542 507.333 L 501.763 507.333 L 501.763 500.667 L 511.932 500.667 Z  M 528.881 447.333 L 528.881 454 L 522.102 454 L 522.102 447.333 L 528.881 447.333 Z  M 393.288 420.667 L 522.102 420.667 L 522.102 427.333 L 393.288 427.333 L 393.288 420.667 Z  M 403.458 494 C 401.586 494 400.068 492.507 400.068 490.667 L 400.068 434 L 515.322 434 L 515.322 490.667 C 515.322 492.507 513.804 494 511.932 494 L 501.763 494 L 501.763 484 C 501.763 460.068 482.033 440.667 457.695 440.667 C 433.357 440.667 413.627 460.068 413.627 484 L 413.627 494 L 403.458 494 Z  M 501.763 607.333 L 413.627 607.333 L 413.627 600.667 L 501.763 600.667 L 501.763 607.333 Z  M 428.353 594 L 434.406 574.15 C 434.865 574.43 435.335 574.68 435.803 574.944 C 436.143 575.133 436.482 575.333 436.82 575.514 C 437.803 576.036 438.799 576.513 439.817 576.974 C 439.931 577.024 440.054 577.063 440.157 577.114 C 441.073 577.506 442.004 577.867 442.946 578.193 C 443.308 578.32 443.679 578.427 444.041 578.526 C 444.753 578.753 445.471 578.971 446.193 579.16 C 446.607 579.27 447.024 579.366 447.441 579.464 C 448.146 579.628 448.855 579.775 449.566 579.903 C 449.983 579.977 450.4 580.053 450.821 580.117 C 451.587 580.234 452.359 580.323 453.135 580.4 C 453.502 580.437 453.868 580.483 454.237 580.51 C 455.379 580.597 456.533 580.65 457.692 580.65 C 458.85 580.65 460.004 580.597 461.146 580.51 C 461.515 580.483 461.881 580.437 462.247 580.4 C 463.023 580.323 463.796 580.234 464.559 580.117 C 464.983 580.053 465.4 579.977 465.817 579.903 C 466.53 579.771 467.24 579.625 467.946 579.464 C 468.359 579.366 468.773 579.27 469.187 579.16 C 469.915 578.971 470.634 578.753 471.352 578.523 C 471.711 578.411 472.079 578.303 472.434 578.189 C 473.394 577.854 474.343 577.486 475.278 577.086 C 475.376 577.044 475.478 577.013 475.576 576.97 C 476.594 576.523 477.61 576.03 478.583 575.504 C 478.923 575.33 479.237 575.133 479.567 574.947 C 480.037 574.68 480.515 574.426 480.98 574.143 L 487.036 594 L 428.353 594 Z  M 494.983 537.333 C 494.996 547.062 491.072 556.396 484.075 563.274 C 477.081 570.154 467.588 574.013 457.695 574 C 456.636 574 455.583 573.958 454.538 573.873 C 447.264 573.299 440.325 570.61 434.607 566.15 C 425.619 559.203 420.382 548.575 420.407 537.333 L 420.407 527.333 L 494.983 527.333 L 494.983 537.333 Z  M 505.153 520.667 L 410.237 520.667 L 410.237 514 L 505.153 514 L 505.153 520.667 Z  M 420.407 507.333 L 420.407 484 C 420.407 463.749 437.101 447.333 457.695 447.333 C 478.289 447.333 494.983 463.749 494.983 484 L 494.983 507.333 L 420.407 507.333 Z " fill="rgb(61,154,226)"/><path d=" M 369.559 447.333 C 371.431 447.333 372.949 445.841 372.949 444 L 372.949 440.667 C 372.949 438.826 371.431 437.333 369.559 437.333 C 367.687 437.333 366.169 438.826 366.169 440.667 L 366.169 444 C 366.169 445.841 367.687 447.333 369.559 447.333 Z " fill="rgb(61,154,226)"/><path d=" M 362.78 447.333 L 359.39 447.333 C 357.518 447.333 356 448.826 356 450.667 C 356 452.507 357.518 454 359.39 454 L 362.78 454 C 364.652 454 366.169 452.507 366.169 450.667 C 366.169 448.826 364.652 447.333 362.78 447.333 Z " fill="rgb(61,154,226)"/><path d=" M 369.559 454 C 367.687 454 366.169 455.493 366.169 457.333 L 366.169 460.667 C 366.169 462.507 367.687 464 369.559 464 C 371.431 464 372.949 462.507 372.949 460.667 L 372.949 457.333 C 372.949 455.493 371.431 454 369.559 454 Z " fill="rgb(61,154,226)"/><path d=" M 376.339 454 L 379.729 454 C 381.601 454 383.119 452.507 383.119 450.667 C 383.119 448.826 381.601 447.333 379.729 447.333 L 376.339 447.333 C 374.467 447.333 372.949 448.826 372.949 450.667 C 372.949 452.507 374.467 454 376.339 454 Z " fill="rgb(61,154,226)"/><path d=" M 389.898 547.333 C 391.77 547.333 393.288 545.841 393.288 544 L 393.288 540.667 C 393.288 538.826 391.77 537.333 389.898 537.333 C 388.026 537.333 386.508 538.826 386.508 540.667 L 386.508 544 C 386.508 545.841 388.026 547.333 389.898 547.333 Z " fill="rgb(61,154,226)"/><path d=" M 383.119 547.333 L 379.729 547.333 C 377.857 547.333 376.339 548.826 376.339 550.667 C 376.339 552.507 377.857 554 379.729 554 L 383.119 554 C 384.991 554 386.508 552.507 386.508 550.667 C 386.508 548.826 384.991 547.333 383.119 547.333 Z " fill="rgb(61,154,226)"/><path d=" M 389.898 554 C 388.026 554 386.508 555.493 386.508 557.333 L 386.508 560.667 C 386.508 562.507 388.026 564 389.898 564 C 391.77 564 393.288 562.507 393.288 560.667 L 393.288 557.333 C 393.288 555.493 391.77 554 389.898 554 Z " fill="rgb(61,154,226)"/><path d=" M 400.068 547.333 L 396.678 547.333 C 394.806 547.333 393.288 548.826 393.288 550.667 C 393.288 552.507 394.806 554 396.678 554 L 400.068 554 C 401.94 554 403.458 552.507 403.458 550.667 C 403.458 548.826 401.94 547.333 400.068 547.333 Z " fill="rgb(61,154,226)"/><path d=" M 532.271 570.667 C 530.399 570.667 528.881 572.159 528.881 574 L 528.881 577.333 C 528.881 579.174 530.399 580.667 532.271 580.667 C 534.143 580.667 535.661 579.174 535.661 577.333 L 535.661 574 C 535.661 572.159 534.143 570.667 532.271 570.667 Z " fill="rgb(61,154,226)"/><path d=" M 525.492 580.667 L 522.102 580.667 C 520.23 580.667 518.712 582.159 518.712 584 C 518.712 585.841 520.23 587.333 522.102 587.333 L 525.492 587.333 C 527.364 587.333 528.881 585.841 528.881 584 C 528.881 582.159 527.364 580.667 525.492 580.667 Z " fill="rgb(61,154,226)"/><path d=" M 532.271 587.333 C 530.399 587.333 528.881 588.826 528.881 590.667 L 528.881 594 C 528.881 595.841 530.399 597.333 532.271 597.333 C 534.143 597.333 535.661 595.841 535.661 594 L 535.661 590.667 C 535.661 588.826 534.143 587.333 532.271 587.333 Z " fill="rgb(61,154,226)"/><path d=" M 542.441 580.667 L 539.051 580.667 C 537.179 580.667 535.661 582.159 535.661 584 C 535.661 585.841 537.179 587.333 539.051 587.333 L 542.441 587.333 C 544.313 587.333 545.831 585.841 545.831 584 C 545.831 582.159 544.313 580.667 542.441 580.667 Z " fill="rgb(61,154,226)"/><path d=" M 545.831 520.667 C 540.214 520.667 535.661 525.144 535.661 530.667 C 535.661 536.189 540.214 540.667 545.831 540.667 C 551.447 540.667 556 536.189 556 530.667 C 556 525.144 551.447 520.667 545.831 520.667 Z  M 545.831 534 C 543.958 534 542.441 532.507 542.441 530.667 C 542.441 528.826 543.958 527.333 545.831 527.333 C 547.703 527.333 549.22 528.826 549.22 530.667 C 549.22 532.507 547.703 534 545.831 534 Z " fill="rgb(61,154,226)"/><path d=" M 386.508 504 C 386.508 498.478 381.955 494 376.339 494 C 370.723 494 366.169 498.478 366.169 504 C 366.169 509.522 370.723 514 376.339 514 C 381.955 514 386.508 509.522 386.508 504 Z  M 372.949 504 C 372.949 502.159 374.467 500.667 376.339 500.667 C 378.211 500.667 379.729 502.159 379.729 504 C 379.729 505.841 378.211 507.333 376.339 507.333 C 374.467 507.333 372.949 505.841 372.949 504 Z " fill="rgb(61,154,226)"/></g></g></g></svg>