<?xml version="1.0" standalone="no"?><!-- Generator: Gravit.io --><svg xmlns="http://www.w3.org/2000/svg" xmlns:xlink="http://www.w3.org/1999/xlink" style="isolation:isolate" viewBox="502 497 200 200" width="200" height="200"><defs><clipPath id="_clipPath_lYMMHzOVvye3cB8x3by4y0iXzUm00cqK"><rect x="502" y="497" width="200" height="200"/></clipPath></defs><g clip-path="url(#_clipPath_lYMMHzOVvye3cB8x3by4y0iXzUm00cqK)"><g><g><g><g><path d=" M 702 575.561 C 702 618.959 657.242 654.121 602 654.121 C 546.758 654.121 502 618.959 502 575.561 C 502 532.162 546.758 497 601.999 497 C 657.242 497 702 532.162 702 575.561 Z " fill="rgb(253,203,88)"/><g><path d=" M 676.122 585.726 C 675.431 585.331 664.76 579.117 648.815 574.876 C 649.003 574.334 649.066 573.791 649.066 573.249 C 649.066 571.523 648.25 569.994 646.932 568.81 C 657.54 566.394 666.517 566.344 666.706 566.344 C 669.97 566.344 672.606 564.273 672.544 561.709 C 672.544 559.144 669.907 557.073 666.643 557.073 C 665.325 557.073 634.565 557.27 615.419 572.312 C 613.724 573.643 613.222 575.616 614.163 577.342 C 615.042 579.068 617.239 580.202 619.562 580.202 C 646.555 580.202 668.777 593.024 668.965 593.123 C 670.033 593.764 671.288 594.06 672.481 594.06 C 674.301 594.06 676.059 593.419 677.189 592.235 C 679.26 590.115 678.695 587.254 676.122 585.726 Z " fill="rgb(102,69,0)"/><path d=" M 588.51 572.265 C 569.363 557.223 538.604 557.026 537.286 557.026 C 534.021 557.026 531.385 559.097 531.385 561.662 C 531.385 564.226 534.021 566.298 537.223 566.298 C 537.411 566.298 546.388 566.347 556.997 568.763 C 555.679 569.947 554.863 571.525 554.863 573.202 C 554.863 573.794 554.988 574.336 555.114 574.829 C 539.106 579.07 528.434 585.284 527.807 585.679 C 525.233 587.208 524.668 590.117 526.614 592.139 C 527.744 593.372 529.564 593.964 531.322 593.964 C 532.578 593.964 533.77 593.668 534.837 593.027 C 535.089 592.879 557.122 580.106 584.241 580.106 C 586.626 580.106 588.761 578.972 589.702 577.246 C 590.707 575.569 590.205 573.596 588.51 572.265 Z " fill="rgb(102,69,0)"/><path d=" M 602 627.037 C 584.549 627.037 572.998 628.615 558.685 630.835 C 555.421 631.328 549.081 630.835 549.081 623.289 C 549.081 608.149 571.178 589.261 602 589.261 C 632.822 589.261 654.919 608.149 654.919 623.289 C 654.919 630.835 648.579 631.328 645.315 630.835 C 631.002 628.665 619.451 627.037 602 627.037 Z " fill="rgb(102,69,0)"/></g><g><path d=" M 637.304 683.156 C 637.304 688.285 632.031 692.379 625.566 692.379 C 619.1 692.379 613.827 688.236 613.827 683.156 C 613.827 678.028 619.1 673.934 625.566 673.934 C 632.031 673.934 637.304 678.028 637.304 683.156 Z " fill="rgb(120,177,89)"/><path d=" M 566.696 684.023 L 566.696 617.101 C 566.696 607.879 584.335 598.608 601.975 598.608 C 619.615 598.608 637.254 607.83 637.254 617.101 L 637.254 683.333 L 566.696 684.023 Z " fill="rgb(120,177,89)"/><path d=" M 673.438 685.756 C 673.438 691.97 641.485 697 602 697 C 562.515 697 530.562 691.97 530.562 685.756 C 530.562 679.542 562.515 674.512 602 674.512 C 641.485 674.512 673.438 679.591 673.438 685.756 Z " fill="rgb(120,177,89)"/></g><g><path d=" M 596.149 614.816 C 596.149 618.663 592.195 621.77 587.298 621.77 C 582.402 621.77 578.447 618.663 578.447 614.816 C 578.447 610.97 582.402 607.863 587.298 607.863 C 592.195 607.863 596.149 610.97 596.149 614.816 Z " fill="rgb(93,144,64)"/><path d=" M 630.562 628.335 C 630.562 632.181 626.608 635.288 621.711 635.288 C 616.815 635.288 612.86 632.181 612.86 628.335 C 612.86 624.488 616.815 621.381 621.711 621.381 C 626.608 621.381 630.562 624.537 630.562 628.335 Z " fill="rgb(93,144,64)"/><path d=" M 619.621 656.396 C 619.621 660.242 615.667 663.349 610.77 663.349 C 605.874 663.349 601.919 660.242 601.919 656.396 C 601.919 652.549 605.874 649.442 610.77 649.442 C 615.667 649.442 619.621 652.598 619.621 656.396 Z " fill="rgb(93,144,64)"/><path d=" M 602 675.861 C 602 681.335 596.35 685.773 589.382 685.773 C 582.414 685.773 576.765 681.335 576.765 675.861 C 576.765 670.387 582.414 665.948 589.382 665.948 C 596.35 665.948 602 670.387 602 675.861 Z " fill="rgb(93,144,64)"/></g></g></g></g></g></g></svg>